<!DOCTYPE svg  PUBLIC '-//W3C//DTD SVG 1.1//EN'  'http://www.w3.org/Graphics/SVG/1.1/DTD/svg11.dtd'><svg viewBox="0 0 87.15 143.95" xmlns="http://www.w3.org/2000/svg"><g clip-rule="evenodd" fill-rule="evenodd"><path d="M78.7 22.8l-.3-.05c-3.1-1.3-14.08-7.13-32.95-17.5a176.84 176.84 0 0 0-6.3 3.55c-3.33 1.93-10.63 6.42-21.9 13.45a.63.63 0 0 1-.6.1.76.76 0 0 1-.55-.35c-.3-.47-.2-.85.3-1.15a984.95 984.95 0 0 1 21.9-13.5c3.33-1.97 5.6-3.25 6.8-3.85.27-.1.52-.08.75.05.1.07 5.05 2.77 14.85 8.1 10.17 5.5 16.28 8.68 18.35 9.55.23.07.38.22.45.45.1.2.1.42 0 .65a.84.84 0 0 1-.8.5z" fill="#D8CD98"/><path d="M65 14.25l.35-.1c5.5 2.93 9.32 4.93 11.45 6 .07.6-.08 1.15-.45 1.65-3.87-1.87-14.17-7.38-30.9-16.55a176.84 176.84 0 0 0-6.3 3.55c-3.33 1.93-10.63 6.42-21.9 13.45a.63.63 0 0 1-.6.1.76.76 0 0 1-.55-.35c-.3-.47-.2-.85.3-1.15l11.8-7.35c.6.3 1.42.22 2.45-.25 1-.43 2.48-1.37 4.45-2.8a24.53 24.53 0 0 1 4.4-2.85l4.35-2.2c1.43-.73 2.25-1 2.45-.8.23.23.67.2 1.3-.1l5.45 3 .25.25a13.7 13.7 0 0 0 1.3 1.2c.67.53 1.47.97 2.4 1.3.33.13 1.72.97 4.15 2.5 1.9 1.2 3.18 1.7 3.85 1.5z" fill="#C0B787"/><linearGradient id="a" x1="23.2" x2="29.75" y1="-44.72" y2="-44.72" gradientTransform="rotate(89.78 0 0)" gradientUnits="userSpaceOnUse"><stop stop-opacity=".69" offset="0"/><stop stop-opacity="0" offset="1"/></linearGradient><path fill="url(#a)" d="M7.85 19.45h74.3v105.9H7.85z"/><linearGradient id="b" x1="124.82" x2="131.27" y1="-47.35" y2="-47.35" gradientTransform="rotate(91.78 0 0)" gradientUnits="userSpaceOnUse"><stop stop-opacity=".69" offset="0"/><stop stop-opacity="0" offset="1"/></linearGradient><path fill="url(#b)" d="M1.8 124.55l82.25-2.75.65 19.45-82.25 2.7z"/><path d="M50 4.65c-1.37 1.47-2.32 2.32-2.85 2.55l-1.4.5c-.3-.2-.5-.53-.6-1L45 5.95l1.15-.3A5.1 5.1 0 0 0 48.2 4.2l1.8.45z" fill="#97979C"/><path fill="#76767A" d="M48.2 4.2l1.15.3-1.7.25zm-.95.85l.15-.1.15.75c0 .23-.03.42-.1.55l-.2.35c-.17.2-.42.38-.75.55-.43.17-.75.28-.95.35-.17-.17-.3-.43-.4-.8L45 5.95l.25-.05.05.5c.17.3.47.4.9.3a2 2 0 0 0 .95-.45c.2-.2.27-.45.2-.75l-.1-.45z"/><path d="M47.4 4.95l.25-.2 1.7-.25.65.15c-1.37 1.47-2.32 2.32-2.85 2.55l-1.4.5-.2-.2c.2-.07.52-.18.95-.35.33-.17.58-.35.75-.55l.2-.35c.07-.13.1-.32.1-.55l-.15-.75z" fill="#5B5B5E"/><path d="M47.35 5.5c-.13.23-.42.45-.85.65-.2.1-.57.12-1.1.05h.45c.9-.53 1.4-.77 1.5-.7zM48.4.45c1-.57 2.02-.57 3.05 0 .9.53 1.5 1.23 1.8 2.1.5 1.6-.02 2.73-1.55 3.4-.77.33-1.63.35-2.6.05-.87-.3-1.42-.7-1.65-1.2a6.47 6.47 0 0 1-.65-1.95c-.03-.97.5-1.77 1.6-2.4z" fill="#D9D9E0"/><path d="M48.4.75c.8-.43 1.68-.23 2.65.6a5.17 5.17 0 0 1 1.7 2.4c.4 1.2-.13 2.13-1.6 2.8-.63.27-1.35.22-2.15-.15-.77-.33-1.25-.72-1.45-1.15a8.23 8.23 0 0 1-.7-1.95c-.1-1.07.42-1.92 1.55-2.55z" fill="#7E7E82"/><path d="M48.85.7c.8-.47 1.65-.42 2.55.15.77.5 1.3 1.17 1.6 2 .5 1.47.1 2.48-1.2 3.05-.6.27-1.32.23-2.15-.1-.73-.3-1.2-.68-1.4-1.15-.4-.8-.62-1.4-.65-1.8-.1-.87.32-1.58 1.25-2.15z" fill="#ABABB0"/><path d="M52.15 5.35c-.53.17-1.3.1-2.3-.2a2.35 2.35 0 0 1-1.55-1.9c.1.03.32.23.65.6.3.3.56.42.8.35-.37-.27-.5-.48-.4-.65l.6.1.75-.15a6.6 6.6 0 0 0 1.1-.4c.43-.23.55-.5.35-.8l.45-.25.4.8c.3.9.25 1.65-.15 2.25l-.7.25z" fill="#9C9CA1"/><path d="M51.3 1.6c-.43.13-.75.25-.95.35-.33.37-.63.55-.9.55-.43.03-.65-.22-.65-.75 0-.57.2-.9.6-1l.3-.05c.2-.1.53-.05 1 .15.3.13.5.38.6.75z" fill="#BFBFC4"/><radialGradient id="c" cx="46.05" cy="7.95" r="1.75" gradientTransform="matrix(1 0 0 -1 0 15.9)" gradientUnits="userSpaceOnUse"><stop stop-opacity=".17" offset=".68"/><stop stop-opacity=".17" offset=".87"/></radialGradient><path d="M45.05 6.5a.73.73 0 0 0 .05.6c.17.3.42.47.75.5.27.07.55.02.85-.15h.45l-.05.45c-.07.13-.2.28-.4.45 0 .13.27.33.8.6a4.7 4.7 0 0 0-.8.35c-.37.2-.48.42-.35.65-.2-.17-.35-.43-.45-.8-.1-.27-.22-.4-.35-.4-.2.07-.38.12-.55.15.13-.23.15-.43.05-.6a3.65 3.65 0 0 1-.4-.65 2.23 2.23 0 0 1 0-.95c.07-.5.22-.77.45-.8.03.1.02.3-.05.6z" fill="url(#c)"/><path d="M48.3 25.35c-8.97-.27-22.85-.38-41.65-.35l-.25-6.15 6.4-3.5 34.1 1c9.8.27 20.73.72 32.8 1.35l.6 8.55-32-.9z" fill="#817651"/><path d="M43.9 118.6c9.03.33 20.18.58 33.45.75l.15 9.4-69.8-2.4-6.25-3.85.6-6.1a1610.2 1610.2 0 0 0 41.85 2.2z" fill="#94895E"/><path d="M48.35 23.95c-8.97-.23-22.87-.35-41.7-.35l-.2-6.3 6.4-3.6 34.1.95c9.8.27 20.73.72 32.8 1.35l.6 8.85-32-.9zM43.9 119.8c9.03.33 20.18.58 33.45.75l.1 9.65-69.8-2.35-6.25-4 .6-6.3c18.9 1.2 32.87 1.95 41.9 2.25z" fill="#C6B77D"/><path fill="#B5A772" d="M25.65 23.65H17.8v-.15zm45 .55c1.83-.23 3.55-.42 5.15-.55v1.1l-8.5-.25a26.5 26.5 0 0 0 3.35-.3zm-5.8-7.85c-3.7.07-10.28.08-19.75.05-11 0-18.98-.08-23.95-.25L16.4 16l-.2-.95h1.7c.97.17 2.4.3 4.3.4 2.03.17 4.45.25 7.25.25H43.5c5.3.17 9.43.22 12.4.15 1.83.13 4.13.2 6.9.2 1.53-.03 3.83-.07 6.9-.1h.8l-5.65.4zM75.9 20.7v.25l-3.5.15c-4.53.47-12.05.65-22.55.55-11.67-.17-19.65-.27-23.95-.3a9.01 9.01 0 0 0-2.1-.1 15 15 0 0 1-1.85 0c-2-.2-3.52-.3-4.55-.3h-.1v-.2h7.65c5.27 0 13.55.08 24.85.25 9.7.07 16.75-.15 21.15-.65l4.95-.45v.7l-17.15.6c-4.97 0-7.95-.02-8.95-.05.73.17 1.6.27 2.6.3H55c6.17 0 13.13-.25 20.9-.75zm-9.95 107.5h7.2v.6c-12.03-.47-23.22-.75-33.55-.85-3.33-.03-7.15-.02-11.45.05.7-.13 1.2-.3 1.5-.5l-.85-.15c9.03-.13 15.28-.17 18.75-.1 3.87.13 11.35.32 22.45.55a32.01 32.01 0 0 1-4.05.4zM69.5 17.8l6.45.1v.55c-1.43.1-2.8.15-4.1.15l-18.6.35c-11.2.2-19.37.22-24.5.05h-.9l.3-.25c-.93-.13-2.1-.18-3.5-.15-1.6.07-2.78.1-3.55.1-1.53 0-2.4-.02-2.6-.05l-1.65-.25-.15-.65 31.4.35c7.7.1 14.83 0 21.4-.3zM44.8 126.25a127 127 0 0 0 18.15-1.4c6.5-.17 9.92-.25 10.25-.25v.75c-3.83.1-8.08.32-12.75.65a134 134 0 0 1-6.1.5c-2.27.1-5.45.02-9.55-.25zm-16.95-2.8l.15.05c1.2.1 5.32.5 12.35 1.2l-1.7-.05a7.32 7.32 0 0 0-1.55.05c.53.5 1.48.9 2.85 1.2-2.9-.23-6.28-.7-10.15-1.4-1.67-.3-5.88-.35-12.65-.15l-3.9.15-.1-.6c3.27-.07 8.17-.22 14.7-.45zm49.15 1.8l-.4-.65h.8v.65zm.35-2.75l-2.1-.2-.05-.15 2.15-.05zm-54-1.55H17.8c-2.2.2-3.83.3-4.9.3l-.05-.55c2.03-.03 3.8-.03 5.3 0 2.33.1 4.07.18 5.2.25zm42.55 2.25a299.32 299.32 0 0 1-34.5-1c-3.5-.27-6.22-.43-8.15-.5l1.05-.05 2.1-.05a7.72 7.72 0 0 0 2.35-.35c2.77.17 7.15.42 13.15.75 5.33.33 9.42.53 12.25.6 3.9.1 9.65-.02 17.25-.35a49.3 49.3 0 0 1-6.25.45 9.1 9.1 0 0 0-2.65.5c1.1-.03 2.23-.03 3.4 0zm-22.15-2.7c.93.1 2.27.18 4 .25 1.87.07 3.2.13 4 .2l2.85.2a71.4 71.4 0 0 1-6-.05c-7.4-.5-12.97-.87-16.7-1.1-6.7-.47-12.05-.7-16.05-.7H14.6l.65-.3c.53.17 1.28.23 2.25.2 1.2 0 1.93.02 2.2.05l8.35.2c.8 0 2.12.03 3.95.1l-.45.2c.47.17 1.08.25 1.85.25h1.9c3.8.13 6.62.3 8.45.5zm-29.6-1.8h-1.4v-.45h.35c.2.2.55.35 1.05.45z"/><path d="M12.8 120l.1 1.25a9.7 9.7 0 0 1-1.65-.1c0-.33.07-.63.2-.9.4 0 .85-.08 1.35-.25zm-1.3 3.2l-3.35-.1v-.15c2.17 0 3.78-.1 4.85-.3l.1.7-1.6-.15zm1.65.7l.35 2.85-.3-.1h-.65a.86.86 0 0 1-.55-.2c-.43-.3-.62-1.13-.55-2.5l1.7-.05zm-.4-5.7v.5l-.5-.05-.05-.5zm2.65-94.55c.07-.43.17-.75.3-.95.23-.27.58-.43 1.05-.5l.8-.1.25 1.4v.15h-2.4zm1.65-4.2l.25 1.3v.2c-.4.03-.72.05-.95.05a1.8 1.8 0 0 1-.9-.3c.13-.6.67-1.02 1.6-1.25zm-1.15-5.5l.15.55-.05.15h.1l.75 3.75a3.13 3.13 0 0 1-.75-.2.97.97 0 0 1-.45-.8l.25-3.45zM79.65 16h.1l.1 1.05L76 16.7h-.05v-.75c1.9.17 3.13.18 3.7.05zm-3.75 4.6l.05-2.7 3.95.05.45 6.9-4.55-.1.1-4.05 4.1-.25zm-2.7 102.85h1.65c.07.8.02 1.53-.15 2.2l-.45 1.8c-.33-.03-.7-.03-1.1 0l.05-4zm2.7 0l1.5 2.45.05 2.3-.9-.25-1.05-4.5zm-1.1-1.2l-1.6-.05v-1.45c.43 0 .75-.02.95-.05l.65 1v.55zm-1.65 7.8v-1.85h.9l-.35 1.8v.1zm3.95.15l-.5-2h.85v2z" fill="#B5A772"/><path d="M21.95 21.25a15 15 0 0 0 1.85 0c.97-.03 1.67 0 2.1.1.3.07.5.15.6.25-.47.23-1.13.35-2 .35a30 30 0 0 0-2.05.05c-2.2 0-3.83.03-4.9.1l-.8.1c-.47.07-.82.23-1.05.5-.13.2-.23.52-.3.95l-7.85-.05c.27-.83.3-1.68.1-2.55a5 5 0 0 0-1.15-2.3l-.05-1.45 6.4-3.6 3.1.05-.05.2-.25 3.45c.03.37.18.63.45.8.13.07.38.13.75.2l1.65.25c.2.03 1.07.05 2.6.05.77 0 1.95-.03 3.55-.1 1.4-.03 2.57.02 3.5.15l-.3.25c-.43.23-1.15.33-2.15.3-1.07-.07-1.77-.1-2.1-.1a27 27 0 0 0-3.6-.05c-1.3.03-2.28.13-2.95.3-.93.23-1.47.65-1.6 1.25.23.17.53.27.9.3.23 0 .55-.02.95-.05h.1c1.03 0 2.55.1 4.55.3zm54-4.55H76l3.85.35.05.9-16.95-.25c3.5-.03 6.2-.11 8.1-.25.83-.07 2.07-.25 3.7-.55.17 0 .37.02.6.05.23-.03.43-.12.6-.25zm-17.2 4.5L80 20.45l-4.1.25c-7.77.5-14.73.75-20.9.75h-2.6c-1-.03-1.87-.13-2.6-.3 1 .03 3.98.05 8.95.05zm-35.4 99.75c.63 0 1.62-.05 2.95-.15 1.2-.03 2.17.03 2.9.2l-.45.25c-.53.2-1.32.32-2.35.35a84.6 84.6 0 0 1-2.1.05l-1.05.05c-2.3.1-3.67.17-4.1.2a91 91 0 0 0-2.6.1 10.68 10.68 0 0 0-3.55.65c-1.07.2-2.68.3-4.85.3a3.9 3.9 0 0 0-.75-2.4 3.8 3.8 0 0 0-2.5-1.45c-.93-.2-1.92-.48-2.95-.85l.05-.7 10.2.6.05.5.5.05h1.4l.5.1.6.2-.65.3a9 9 0 0 1-1.8.7c-.5.17-.95.25-1.35.25-.13.27-.2.57-.2.9.37.07.92.1 1.65.1 1.07 0 2.7-.1 4.9-.3h5.55zM11.5 123.2l1.6.15 14.75.1c-6.53.23-11.43.38-14.7.45l-1.7.05.05-.75zm-3.4.45l.05-.55 3.2.1zm54.85 1.2a127 127 0 0 1-18.15 1.4l-4.85-.35c-1.37-.3-2.32-.7-2.85-1.2.4-.07.92-.08 1.55-.05l29.1-.45-4.8.65z" fill="#998E62"/><path d="M8.1 123.65l3.25-.45h.15l-.05.75c-.07 1.37.12 2.2.55 2.5.17.13.35.2.55.2h.65l.3.1c1.53.27 2.7.43 3.5.5 1.3.13 3.78.2 7.45.2.9 0 2.35-.03 4.35-.1l.85.15c-.3.2-.8.37-1.5.5l-1.95.5-18.55-.65-1.4-.9a4.91 4.91 0 0 0 1.85-3.3zm66.6 2c.17-.67.22-1.4.15-2.2h.65l1.05 4.5-2.05-.5h-.25l.45-1.8zm1.9 2.55l.5 2-3.4-.1v-.1l.35-1.8zm-1.8-5.95l-.05-1.75h.05l.4 1.65.05.15z" fill="#998E62"/><path d="M74.5 127.45l2.95.75h-11.5a33.4 33.4 0 0 0 4.05-.4c1.4-.2 2.45-.32 3.15-.35.4-.03.77-.03 1.1 0h.25zm-8.6-4.25c-1.17-.03-2.3-.03-3.4 0a9.1 9.1 0 0 1 2.65-.5 48.15 48.15 0 0 0 6.25-.45l2.6-.05 3.35.3v.95l-11.45-.25z" fill="#998E62"/><path d="M14.15 118.7c-.5-.1-.85-.25-1.05-.45l6.8.35-5.4.1.15.1-.5-.1zm60.55 1.8v.15l-.55.05c-.2.03-.52.05-.95.05-1.67-.03-2.92-.05-3.75-.05-.7 0-1.7.13-3 .4a19.3 19.3 0 0 1-3.05.35c-2.9 0-5.83-.1-8.8-.3l-2.85-.2c-.8-.07-2.13-.13-4-.2a62.51 62.51 0 0 1-4-.25c-1.83-.2-4.65-.37-8.45-.5h-1.9c-.77 0-1.38-.08-1.85-.25l.45-.2c.8 0 1.38-.03 1.75-.1l.2-.05 9.95.4c5.57.2 15.83.43 30.8.7z" fill="#EADCA5"/><path d="M32 119.55c-1.83-.07-3.15-.1-3.95-.1l-8.35-.2c-.27-.03-1-.05-2.2-.05a7.07 7.07 0 0 1-2.25-.2l-.6-.2-.15-.1 5.4-.1c1.83.13 6.52.4 14.05.8l-.2.05c-.37.07-.95.1-1.75.1zm43.95-103.6H69.7c-3.07.03-5.37.07-6.9.1-2.77 0-5.07-.07-6.9-.2l-1.75-.15c-1.5-.2-3.27-.27-5.3-.2-2.37.1-4.15.17-5.35.2H29.45c-2.8 0-5.22-.08-7.25-.25a38.9 38.9 0 0 1-4.3-.4 9.37 9.37 0 0 1-1.8-.4H16l.05-.15.55-.7 30.35.85c9.4.27 20.3.72 32.7 1.35-.57.13-1.8.12-3.7-.05z" fill="#EADCA5"/><path d="M5.85 12.85l8.55.25c-.2 6.47-.47 10.95-.8 13.45-.2 1.63-.55 9.95-1.05 24.95-.4 11.7-.67 20.63-.8 26.8-.13 4.23-.52 21.05-1.15 50.45l-9.35.15c.53-8.97.98-15 1.35-18.1.23-1.87.53-10.35.9-25.45.4-16.33.65-26.18.75-29.55.17-6.77.7-21.08 1.6-42.95z" fill="#817651"/><path d="M84.05 87.65c-.23 14.9-.3 23.4-.2 25.5.2 3.07-.1 9.08-.9 18.05l-8.15-.65a9839.05 9839.05 0 0 1 1.85-77.25c.37-15.03.48-23.35.35-24.95-.13-1.57-.18-4.28-.15-8.15l.1-5.3 8.55.2c-.33 21.9-.6 36.22-.8 42.95-.2 6.43-.42 16.3-.65 29.6z" fill="#94895E"/><path d="M4.65 12.8l8.85.25a159 159 0 0 1-.8 13.5c-.23 1.57-.6 9.87-1.1 24.9l-.8 26.85c-.13 4.2-.5 21-1.1 50.4l-9.7.15c.53-8.97.98-14.98 1.35-18.05.23-1.97.55-10.47.95-25.5.4-16.33.63-26.18.7-29.55.2-6.73.75-21.05 1.65-42.95zm81.1 74.9c-.27 14.93-.33 23.43-.2 25.5.2 3.07-.12 9.08-.95 18.05l-8.4-.65c.6-29.4.97-46.2 1.1-50.4.2-6.73.43-15.68.7-26.85.37-15 .48-23.32.35-24.95-.13-1.57-.18-4.28-.15-8.15l.1-5.35 8.85.25c-.33 21.9-.6 36.22-.8 42.95-.2 6.63-.4 16.5-.6 29.6z" fill="#D0C183"/><path d="M82.95 110.8l-.35 3.35v-1.1c.03-.47.08-.83.15-1.1l.2-1.15zm2.25-75.3c.07-3.17.1-9.35.1-18.55.13-.03.38-.23.75-.6.13 9.4.15 15.9.05 19.5a854.4 854.4 0 0 0-.5 19.25c-.2 9.67-.38 16.82-.55 21.45l-.3 8.2V80.2l-1.4 15c.43-5.87.75-11.22.95-16.05.13-3.1.32-10.45.55-22.05l.35-21.6zm-4.8 95.45l-.75-.05c.43-5.27 1.08-10.8 1.95-16.6.07 1.6.1 2.5.1 2.7.03-.27.15-.62.35-1.05.27-.47.42-.78.45-.95-.23 1.73-.6 4.31-1.1 7.75-.47 3.13-.8 5.87-1 8.2zm.6-114.8l.05.05c-.07.8-.38 4.03-.95 9.7-.5 4.87-.87 9.97-1.1 15.3-.32 1.52-.5 2.68-.55 3.48.03-.78.05-2.75.05-5.93-.03-1.33.05-2.88.25-4.65.27-2.07.45-3.63.55-4.7.2-1.83.23-3.35.1-4.55l.7-8.75h.4l-.05 3c.2-.8.33-1.78.4-2.95H81zm-4.35 95.6l-.05-.2.2-10.3c.3-2.6.65-5.22 1.05-7.85-.23 6.3-.63 12.42-1.2 18.35zm6.05 14.95c-.07-.97.03-1.93.3-2.9.17-1.03.52-2.47 1.05-4.3l-.45 1.85a59.95 59.95 0 0 0-.9 5.85v-.5zm1.05-8.75c-.23.17-.45.47-.65.9 1.07-5.4 1.68-9.33 1.85-11.8.4-5.7.62-9.02.65-9.95-.1 8.1-.13 13.25-.1 15.45l-.35 1.95-1.4 3.45zm1.85-33.2c-.13-4.03.05-10.45.55-19.25l-.45 23.7-.1-4.45zM8.7 14.2c.07.53.1 1.3.1 2.3L7.75 40.05V32.4c-.03-1.33 0-2.83.1-4.5L8 24.95c.3-5.33.45-8.92.45-10.75h.25z" fill="#BBAB72"/><path d="M8.4 14.2l-.55 13.7-.7 5.8a191.5 191.5 0 0 0-.65 17.9v9.35l-.1 1c-.03.47-.02.8.05 1 .23.57.45.52.65-.15l.1 7.5c0 2.03-.23 4.92-.7 8.65-1.4 11.33-2.15 20.1-2.25 26.3-.03 2.13.22 5.28.75 9.45.53 4.23.8 6.88.8 7.95l.05 4.35c-.07-1.93-.1-3.1-.1-3.5 0-1.13-.02-1.82-.05-2.05a6.5 6.5 0 0 1-.5-1.5l.05-1.35a12.2 12.2 0 0 0-.3-2.1c-.03-.27-.17-.77-.4-1.5a7.7 7.7 0 0 1-.35-1.5c.03.5.13 1.22.3 2.15 0 1 .05 1.77.15 2.3.57 2.47.85 4.33.85 5.6l.05 2.45a19.3 19.3 0 0 1-.25 2.8h-.35c.03-2.44-.33-6.62-1.1-12.55a68.6 68.6 0 0 1-.55-13.7C4 95.15 4.52 89.6 4.85 85.9c.63-6.7.97-12.05 1-16.05-.07-6.67-.1-12.08-.1-16.25.07-7.47.38-15.33.95-23.6.2-2.97.62-8.25 1.25-15.85l.45.05zM1.25 127.05c-.07-1-.08-1.73-.05-2.2l.3-2.75.25 6.75H1l.25-1.8zm1.7-45.45c.03-2.37.07-4.13.1-5.3.07-2.07.22-3.82.45-5.25.33-2.2.55-4.53.65-7A119.66 119.66 0 0 1 3.7 78.2c-.4 1.57-.65 2.7-.75 3.4z" fill="#BBAB72"/><path d="M12.85 14.1l.6-.05c-.1 5.33-.35 9.5-.75 12.5-.1.8-.3 4.42-.6 10.85-.43 4.47-.7 7.63-.8 9.5-.1 2.27-.27 6.73-.5 13.4-.27 6.53-.52 11.73-.75 15.6-.2 3.07-.67 7.8-1.4 14.2a139.5 139.5 0 0 0-1 10.9c0 1.77.28 4.45.85 8.05.63 3.87.98 6.98 1.05 9.35l.15 10.3h-.75l.1-2.1a75.6 75.6 0 0 0-1.15-16.45c-.97-5.33-1.43-8.98-1.4-10.95.03-2.3.18-4.42.45-6.35.37-2.27.65-4.2.85-5.8l-.05 6.58c.02-.45.12-1.03.3-1.73.27-1.13.42-1.87.45-2.2a186 186 0 0 0 .55-16.3c.37-4.23.6-7.07.7-8.5.13-2.1.2-4.7.2-7.8.03-2 0-3.97-.1-5.9-.03-1.33-.02-2.68.05-4.05.2-.5.37-1.13.5-1.9l.3-1.9c.43-1.23.72-2.18.85-2.85.17-.97.22-2.15.15-3.55 0-2.6.05-5.2.15-7.8l1-15.05zm70.65 8.2c-.07-.83.02-2.38.25-4.65L81.9 57.4c-.67 14.47-1.07 24.63-1.2 30.5-.07 3.53-.48 10.65-1.25 21.35l-2.1 18.4-.1-1.6 1.45-16.6c.6-6.63.93-11.48 1-14.55l.15-11.6c.07-3.33.17-6.7.3-10.1.93-16.6 1.63-30.95 2.1-43.05.17-3.13.35-7.97.55-14.5l.45.05c0 2.93.08 5.13.25 6.6zm1.8 99.75c-.2 3.13-.43 6.2-.7 9.2l-.55-.05 1.25-9.15z" fill="#BBAB72"/><path d="M7.75 32.4v19.75c-.03 3.4-.15 6.35-.35 8.85 0 .6-.1 1.2-.3 1.8-.2.67-.42.72-.65.15-.07-.2-.08-.53-.05-1l.1-1V51.6c0-7.6.22-13.57.65-17.9l.7-5.8c-.1 1.67-.13 3.17-.1 4.5zM11 36.7c.07-.63.23-1.67.5-3.1l.25-1.65L12 21.7c0 1.67-.05 4.15-.15 7.45-.1 2.6-.15 5.2-.15 7.8.07 1.4.02 2.58-.15 3.55a22.6 22.6 0 0 1-.85 2.85l-.3 1.9c-.13.77-.3 1.4-.5 1.9l-.2.5c.13-3.47.3-6.12.5-7.95.07-.37.2-.87.4-1.5.23-.67.37-1.17.4-1.5zM7.75 93.58L9 63.7l.05 9.7a186 186 0 0 1-.55 16.3c-.03.33-.18 1.07-.45 2.2a10 10 0 0 0-.3 1.68zM4.55 115c.23.73.37 1.23.4 1.5.17.73.27 1.43.3 2.1l-.05 1.35c.07.4.23.9.5 1.5.03.23.05.92.05 2.05 0 .4.03 1.57.1 3.5l.1 1.75-.65.05c.13-.73.22-1.67.25-2.8l-.05-2.45c0-1.27-.28-3.13-.85-5.6-.1-.53-.15-1.3-.15-2.3a21.1 21.1 0 0 1-.3-2.15c.03.37.15.87.35 1.5z" fill="#A09262"/><path d="M8.7 14.2h-.3l-.45-.05c-.6-.03-1.42-.02-2.45.05-.1.73-.13 1.67-.1 2.8.03.63.07 1.57.1 2.8l-.05 16.15c-.03 3.17-.02 5.78.05 7.85a9.3 9.3 0 0 1-.5-1.65c-.2-.73-.4-1.25-.6-1.55-.23.6-.33 1.43-.3 2.5l.15 2.6-.1 18.35c-.1 2.47-.32 4.8-.65 7a41.9 41.9 0 0 0-.45 5.25 420.8 420.8 0 0 0-.1 5.3c.1-.7.35-1.83.75-3.4.29-.84.48-1.59.57-2.25-.14 1.21-.4 2.86-.77 4.95a25.47 25.47 0 0 0-.25 3.4v.15c0 1-.08 2.47-.25 4.4a55.33 55.33 0 0 0-.25 4.35c0 1.13-.08 2.52-.25 4.15l-.45 4.1c-.07.8-.1 1.8-.1 3 0 .67.02 1.67.05 3v9.8a38.5 38.5 0 0 1-.5 4.85l-.3 2.75c-.03.47-.02 1.2.05 2.2l-.25 1.8H0c.53-8.97.98-14.98 1.35-18.05.23-1.97.55-10.47.95-25.5.4-16.33.63-26.18.7-29.55.2-6.73.75-21.05 1.65-42.95l2.55.1.1-.2h1.45l.4-.05-.1.3 4.45.1-.05 1-.6.05c-.2-.03-.73-.17-1.6-.4-.2.27-.28.72-.25 1.35s-.08 1.07-.35 1.3a4.49 4.49 0 0 0-.2-.75c-.07-.33-.2-.55-.4-.65-.1.53-.15 1.32-.15 2.35 0 1.07-.03 1.85-.1 2.35S9.63 21 9.5 22.2a8.08 8.08 0 0 1-.7 2.45 21.39 21.39 0 0 1-.15-4.05l.15-4.1c0-1-.03-1.77-.1-2.3z" fill="#EADCA5"/><path d="M83.25 15.7c.2.03.42.17.65.4l-.15 1.55a30.9 30.9 0 0 0-.25 4.65 63.64 63.64 0 0 1-.25-6.6zm-2.8 3.4l.05-3 .35.05c-.07 1.17-.2 2.15-.4 2.95zm4.3 61.1v4.55c.03 5.4-.03 9.77-.2 13.1a86.4 86.4 0 0 1-1.6 12.95l-.2 1.15c-.07.27-.12.63-.15 1.1v1.1l-.1.8v.05c-.03.17-.18.48-.45.95-.2.43-.32.78-.35 1.05 0-.2-.03-1.1-.1-2.7-.13-1.67 0-2.87.4-3.6l2.75-30.5zm-1 37.75l1.8-4.5.05 1a73.87 73.87 0 0 0-1.55 5.05 38.58 38.58 0 0 0-1.05 4.3 8.62 8.62 0 0 0-.3 2.9l.05 4.4-1.6-.1.25-3.35c.23-2.07.68-4.4 1.35-7 .1-.77.22-1.37.35-1.8.2-.43.42-.73.65-.9zm-4.25-9l-.1 1.05c-.7 8.1-1.08 13.77-1.15 17v3.7l-.05.05-.75-.05-.1-3.05 2.15-18.7z" fill="#A09262"/><path d="M87.15 15.15v.7l-.4.1c-.2 0-.43.13-.7.4-.37.37-.62.57-.75.6-.17.07-.37 0-.6-.2a29.4 29.4 0 0 0-.2 2.5c0-1.58-.2-2.63-.6-3.15a1.28 1.28 0 0 0-.65-.4l-.45-.05-.1.05c-.5.1-.73.43-.7 1 .03.67-.03 1.07-.2 1.2-.03-.5-.07-.85-.1-1.05-.03-.3-.25-.52-.65-.65l-.05-.05h-.15l-.35-.05h-.4c-.53.1-.88.45-1.05 1.05-.43 1.57-.37 3.73.2 6.5l.15 1.2c.13 1.2.1 2.72-.1 4.55-.1 1.07-.28 2.63-.55 4.7-.2 1.77-.28 3.32-.25 4.65 0 3.18-.02 5.15-.05 5.92.05-.8.23-1.95.55-3.47.33-1.5.55-2.58.65-3.25-.03 2.4-.03 4.8 0 7.2-.97 10.97-1.45 26.28-1.45 45.95l-.35 2.3c-.4 2.63-.75 5.25-1.05 7.85l.5-21.05c.2-6.73.43-15.68.7-26.85.37-15 .48-23.32.35-24.95-.13-1.57-.18-4.28-.15-8.15l.1-5.35 3.55.1.05-.15c.34.07.62.1.85.1.44 0 .77-.02 1-.05v.15l3.4.1zm-10.4 99.75c0 1.13.08 2.82.25 5.05 0 1.8.08 3.83.25 6.1l.2 4.65-1.25-.1.4-19.05.05.2c.1.7.13 1.75.1 3.15z" fill="#EADCA5"/><path d="M6.45 18.15l1.8-.5a4.75 4.75 0 0 0 3.2 1.8l-.15.7c-.13.47-.35.8-.65 1a6.33 6.33 0 0 1-1.35-.45c-.33-.13-.9-.6-1.7-1.4l-1.15-1.15z" fill="#97979C"/><path fill="#76767A" d="M8.25 17.65l.55.55-1.7-.25zm.95.85l-.1.45c-.07.4 0 .67.2.8.3.23.62.38.95.45.43.07.73-.05.9-.35.07-.1.07-.27 0-.5l.3.1-.15.7c-.07.3-.22.57-.45.8-.93-.3-1.5-.6-1.7-.9l-.15-.3a.99.99 0 0 1-.1-.6l.15-.75.15.1z"/><path d="M9.3 20.7c-.33-.13-.9-.6-1.7-1.4l-1.15-1.15.65-.2 1.7.25.25.2-.15.75c-.03.2 0 .4.1.6l.15.3c.2.3.77.6 1.7.9l-.2.2a6.37 6.37 0 0 1-1.35-.45z" fill="#5B5B5E"/><path d="M9.1 18.95c.03 0 .53.23 1.5.7h.45c-.5.1-.88.1-1.15 0-.4-.2-.67-.43-.8-.7z" fill="#D9D9E0"/><path d="M7.7 15.05c1.4.5 2.25 1.3 2.55 2.4.1.4.1 1.15 0 2.25-.07.57-.52 1.1-1.35 1.6-.9.53-1.8.68-2.7.45-1.9-.5-2.85-1.68-2.85-3.55-.03-1 .35-1.87 1.15-2.6.9-.83 1.97-1.02 3.2-.55z" fill="#D9D9E0"/><path d="M7.85 15.4c1.43.5 2.28 1.33 2.55 2.5.03.23.02 1.02-.05 2.35-.07.53-.43 1.05-1.1 1.55-.77.5-1.53.65-2.3.45-1.8-.43-2.7-1.37-2.7-2.8 0-1 .32-1.97.95-2.9.77-1.13 1.65-1.52 2.65-1.15z" fill="#7E7E82"/><path d="M7.35 15.45c1.17.43 1.87 1.15 2.1 2.15.07.4.05 1.1-.05 2.1-.07.5-.43 1-1.1 1.5-.77.53-1.52.7-2.25.5-1.57-.43-2.35-1.5-2.35-3.2 0-.93.33-1.75 1-2.45.77-.8 1.65-1 2.65-.6z" fill="#ABABB0"/><path d="M3.85 17.6l.55.15c-.07.4.15.68.65.85.3.1.75.18 1.35.25.37.07.63.08.8.05s.37-.12.6-.25c.17.2.12.47-.15.8.27.03.5-.15.7-.55.2-.47.37-.72.5-.75.1 1.1-.23 1.88-1 2.35-.9.53-1.7.75-2.4.65l-.8-.15a3.28 3.28 0 0 1-.95-2.5c0-.3.05-.6.15-.9z" fill="#9C9CA1"/><path d="M5.05 16.85c0-.47.13-.78.4-.95.4-.3.73-.4 1-.3l.3-.05c.47.07.8.42 1 1.05.23.6.1.92-.4.95-.17 0-.37-.07-.6-.2l-.55-.3c-.5-.03-.88-.1-1.15-.2z" fill="#BFBFC4"/><path d="M9.7 20.9c.3.17.6.23.9.2a.94.94 0 0 0 .7-.5c.1-.17.12-.37.05-.6a1.78 1.78 0 0 1 0-.6c.2.03.33.28.4.75.07.37.08.7.05 1-.03.17-.17.38-.4.65-.1.17-.08.37.05.6l-.6-.2c-.1 0-.2.13-.3.4-.17.43-.33.7-.5.8.13-.23.03-.45-.3-.65a3 3 0 0 1-.8-.35c.53-.17.78-.35.75-.55-.2-.2-.32-.35-.35-.45l-.05-.45.4-.05z" fill="#6C6342"/><path fill="#76767A" d="M6.6 121.55l.55.55-1.7-.25z"/><path d="M7.45 122.85c.03-.03.53.2 1.5.7h.45c-.47.1-.85.08-1.15-.05-.4-.13-.67-.35-.8-.65z" fill="#D9D9E0"/><path d="M6.05 118.95c1.4.5 2.25 1.3 2.55 2.4.1.4.1 1.15 0 2.25-.07.57-.52 1.1-1.35 1.6-.9.53-1.8.68-2.7.45-1.9-.53-2.85-1.72-2.85-3.55-.03-1 .35-1.87 1.15-2.6.9-.83 1.97-1.02 3.2-.55z" fill="#D9D9E0"/><path d="M6.2 119.3c1.43.5 2.27 1.33 2.5 2.5a8 8 0 0 1-.05 2.35c-.07.5-.43 1-1.1 1.5-.77.53-1.52.7-2.25.5-1.8-.43-2.7-1.37-2.7-2.8 0-1 .32-1.97.95-2.9.77-1.13 1.65-1.52 2.65-1.15z" fill="#7E7E82"/><path d="M5.7 119.3c1.17.43 1.87 1.15 2.1 2.15.07.4.05 1.1-.05 2.1-.07.53-.43 1.05-1.1 1.55a2.7 2.7 0 0 1-2.3.5c-1.53-.43-2.3-1.5-2.3-3.2 0-.93.33-1.75 1-2.45a2.2 2.2 0 0 1 2.65-.65z" fill="#ABABB0"/><path d="M3.4 122.5c.3.1.75.18 1.35.25l.8.05c.13-.03.33-.12.6-.25.17.17.12.43-.15.8.27.03.5-.15.7-.55.2-.47.37-.72.5-.75.1 1.1-.23 1.88-1 2.35a3.7 3.7 0 0 1-3.2.45c-.63-.53-.95-1.35-.95-2.45l.15-.95c.1.1.28.17.55.2-.07.4.15.68.65.85z" fill="#9C9CA1"/><path d="M3.4 120.75c-.03-.47.1-.78.4-.95.43-.33.77-.43 1-.3l.3-.05c.43.07.77.4 1 1 .2.63.07.97-.4 1-.17 0-.37-.07-.6-.2l-.55-.3c-.5-.03-.88-.1-1.15-.2z" fill="#BFBFC4"/><path fill="#76767A" d="M81.6 21.1l1.2.3-1.7.25z"/><path d="M80.8 22.4c-.17.3-.45.52-.85.65-.3.13-.68.15-1.15.05h.5c.9-.53 1.4-.77 1.5-.7z" fill="#D9D9E0"/><path d="M83.65 25.15c-.9.27-1.8.13-2.7-.4-.83-.5-1.28-1.05-1.35-1.65a7.7 7.7 0 0 1 0-2.2c.3-1.1 1.15-1.9 2.55-2.4 1.23-.47 2.3-.28 3.2.55.8.73 1.2 1.6 1.2 2.6-.07 1.87-1.03 3.03-2.9 3.5z" fill="#D9D9E0"/><path d="M82.9 25.7c-.73.2-1.48.03-2.25-.5-.67-.5-1.03-1-1.1-1.5a8.03 8.03 0 0 1-.05-2.35c.23-1.17 1.07-2 2.5-2.5 1-.37 1.88.02 2.65 1.15.63.93.95 1.9.95 2.9 0 1.37-.9 2.3-2.7 2.8z" fill="#7E7E82"/><path d="M81.6 24.65c-.67-.5-1.03-1.02-1.1-1.55a9.27 9.27 0 0 1-.05-2.1c.23-1 .93-1.72 2.1-2.15 1-.4 1.88-.18 2.65.65.63.7.95 1.52.95 2.45 0 1.7-.77 2.77-2.3 3.2-.73.2-1.48.03-2.25-.5z" fill="#ABABB0"/><path d="M86 21l.15.95c0 1.1-.32 1.92-.95 2.45a3.79 3.79 0 0 1-3.2-.45c-.8-.5-1.12-1.28-.95-2.35.1.03.27.28.5.75.2.4.43.58.7.55l-.2-.4c-.1-.17-.1-.3 0-.4.17 0 .37.07.6.2h.85c.6-.07 1.03-.15 1.3-.25.5-.17.72-.45.65-.85L86 21z" fill="#9C9CA1"/><path d="M84.85 20.3c-.53.03-.93.1-1.2.2-.47.33-.83.5-1.1.5-.5-.03-.65-.37-.45-1 .23-.6.58-.93 1.05-1h.25c.2-.07.55.05 1.05.35.27.17.4.48.4.95z" fill="#BFBFC4"/><path d="M80.25 124.15l1.2.3-1.7.25c.3-.27.47-.45.5-.55z" fill="#76767A"/><path d="M79.45 125.45c-.17.27-.45.5-.85.7-.27.1-.65.1-1.15 0h.5c.17-.07.67-.3 1.5-.7z" fill="#D9D9E0"/><path d="M80.8 121.55c1.23-.47 2.3-.28 3.2.55.8.73 1.2 1.6 1.2 2.6-.07 1.9-1.03 3.08-2.9 3.55-.9.23-1.8.08-2.7-.45-.83-.5-1.28-1.03-1.35-1.6-.1-1.1-.1-1.85 0-2.25.3-1.1 1.15-1.9 2.55-2.4z" fill="#D9D9E0"/><path d="M80.7 121.9c1-.37 1.87.02 2.6 1.15.63.93.95 1.9.95 2.9 0 1.43-.9 2.37-2.7 2.8a2.7 2.7 0 0 1-2.25-.45c-.67-.5-1.03-1.02-1.1-1.55a7.96 7.96 0 0 1-.05-2.35c.27-1.17 1.12-2 2.55-2.5z" fill="#7E7E82"/><path d="M79.1 124.1c.23-1 .93-1.72 2.1-2.15 1-.4 1.88-.2 2.65.6.63.7.95 1.52.95 2.45 0 1.7-.77 2.77-2.3 3.2-.73.2-1.48.03-2.25-.5-.67-.5-1.03-1-1.1-1.5a9.21 9.21 0 0 1-.05-2.1z" fill="#ABABB0"/><path d="M79.7 124.65c.1.03.27.28.5.75.2.4.43.58.7.55 0-.03-.05-.17-.15-.4-.1-.17-.12-.3-.05-.4l.6.25c.2.03.48.02.85-.05.6-.07 1.03-.15 1.3-.25.5-.17.72-.45.65-.85.3-.07.48-.12.55-.15.1.3.15.6.15.9 0 1.07-.32 1.9-.95 2.5l-.8.15c-.67.1-1.45-.12-2.35-.65-.83-.5-1.17-1.28-1-2.35z" fill="#9C9CA1"/><path d="M83.5 123.35c-.53.07-.93.13-1.2.2-.47.33-.83.5-1.1.5-.5-.03-.65-.35-.45-.95.23-.63.58-.98 1.05-1.05l.3.05c.2-.07.53.03 1 .3.27.17.4.48.4.95z" fill="#BFBFC4"/></g></svg>