<svg xmlns="http://www.w3.org/2000/svg" width="772.73" height="820.59"><defs><radialGradient id="a" cx="372.08" cy="849.3" r="122.74" gradientTransform="matrix(5.3232 0 .00001 5.1169 -1391.5 -3773.4)" gradientUnits="userSpaceOnUse"><stop offset="0" stop-color="#fff" stop-opacity="0"/><stop offset="1" stop-color="#01ff6e"/></radialGradient><filter id="e" width="1.31" height="1.31" x="-.16" y="-.16" color-interpolation-filters="sRGB"><feGaussianBlur stdDeviation="2.07"/></filter><filter id="f" width="1.53" height="1.53" x="-.27" y="-.27" color-interpolation-filters="sRGB"><feGaussianBlur stdDeviation="3.51"/></filter><filter id="g" color-interpolation-filters="sRGB"><feGaussianBlur stdDeviation="3.11"/></filter><filter id="m" color-interpolation-filters="sRGB"><feGaussianBlur stdDeviation="3.11"/></filter><filter id="l" width="1.53" height="1.53" x="-.27" y="-.27" color-interpolation-filters="sRGB"><feGaussianBlur stdDeviation="3.51"/></filter><filter id="k" width="1.31" height="1.31" x="-.16" y="-.16" color-interpolation-filters="sRGB"><feGaussianBlur stdDeviation="2.07"/></filter><linearGradient id="b" x1="-87.45" x2="-133.48" y1="452.66" y2="479.23" gradientTransform="translate(63.62 39.7)" gradientUnits="userSpaceOnUse"><stop offset="0" stop-color="#25d48e"/><stop offset="1" stop-color="#3bdd9d"/></linearGradient><linearGradient id="c" x1="-52.33" x2="-120.99" y1="471.89" y2="465.46" gradientTransform="translate(63.62 39.7)" gradientUnits="userSpaceOnUse"><stop offset="0"/><stop offset="1" stop-opacity="0"/></linearGradient><linearGradient id="d" x1="-87.64" x2="-65.33" y1="433.17" y2="403.22" gradientTransform="translate(63.62 39.7)" gradientUnits="userSpaceOnUse"><stop offset="0" stop-color="#fff"/><stop offset="1" stop-color="#fff" stop-opacity="0"/></linearGradient><linearGradient id="h" x1="-64.44" x2="-133.48" y1="441.14" y2="481" gradientTransform="translate(63.62 39.7)" gradientUnits="userSpaceOnUse"><stop offset="0" stop-color="#a11987"/><stop offset="1" stop-color="#e762cd"/></linearGradient><linearGradient id="i" x1="-48.16" x2="-119.53" y1="469.79" y2="469.79" gradientTransform="translate(63.62 41.48)" gradientUnits="userSpaceOnUse"><stop offset="0"/><stop offset="1" stop-opacity="0"/></linearGradient><linearGradient id="j" x1="-90.52" x2="-47.56" y1="427.85" y2="360.53" gradientTransform="translate(63.62 41.48)" gradientUnits="userSpaceOnUse"><stop offset="0" stop-color="#fff"/><stop offset="1" stop-color="#fff" stop-opacity="0"/></linearGradient></defs><path fill="url(#a)" fill-rule="evenodd" d="M280.05 390.96v53.15l-46.03 26.57 107.4 62.01 46.03-26.57v-53.15zM771.03 568.12L725 541.55V488.4l-107.4 62v53.15l46.03 26.58zM433.48 780.72l46.03-26.57 46.03 26.57v-35.43L479.5 718.7l-46.03 26.58z" color="#000" transform="translate(-139.15 -104.67)"/><path fill="url(#b)" fill-rule="evenodd" d="M-41.43 479.23l-46.03 26.57-46.02-26.57v-53.15l46.02-26.57 46.03 26.57z" color="#000" transform="translate(565.9 311.98)"/><path fill="url(#c)" fill-rule="evenodd" d="M-87.45 505.81v-53.15l46.02-26.57v53.15z" opacity=".4" transform="translate(565.9 311.98)"/><path fill="url(#d)" fill-rule="evenodd" d="M-41.43 426.08l-46.03 26.57-46.02-26.57 46.02-26.57z" opacity=".4" transform="translate(565.9 311.98)"/><path fill="none" stroke="#d7f4e3" stroke-linecap="round" stroke-linejoin="round" stroke-width="2" d="M484.58 761.09l33.75-19.49M438.55 741.61l39.89 23.03v46.06"/><path fill="none" stroke="#d7f4e3" stroke-linecap="round" stroke-width="5.63" d="M524.47 791.21l-46.03 26.57-46.03-26.57v-53.15l46.03-26.57 46.03 26.57z" color="#000"/><path fill="#87ffed" d="M-235.85 539.03a15.9 15.9 0 1 1-31.8 0 15.9 15.9 0 0 1 31.8 0z" color="#000" filter="url(#e)" opacity=".2" transform="translate(730.2 225.6)"/><path fill="#fff6cc" d="M-235.85 539.03a15.9 15.9 0 1 1-31.8 0 15.9 15.9 0 0 1 31.8 0z" color="#000" filter="url(#f)" opacity=".69" transform="translate(606.52 490.41) scale(.50875)"/><path fill="#FFF" d="M-235.85 539.03a15.9 15.9 0 1 1-31.8 0 15.9 15.9 0 0 1 31.8 0z" color="#000" filter="url(#f)" transform="translate(522.32 670.69) scale(.17428)"/><path fill="#FFF" d="M98.04 719.7c-3.76 0-4.38-34.26-7.03-36.92-2.66-2.66-36.92-3.28-36.92-7.04s34.26-4.38 36.92-7.03c2.65-2.66 3.27-36.92 7.03-36.92s4.38 34.26 7.04 36.92c2.66 2.65 36.92 3.28 36.92 7.03s-34.26 4.38-36.92 7.04c-2.66 2.66-3.28 36.92-7.04 36.92z" color="#000" filter="url(#g)" opacity=".6" transform="matrix(.25751 .14867 0 .25751 453.2 576.05)"/><path fill="#FFF" d="M98.04 719.7c-3.76 0-4.38-34.26-7.03-36.92-2.66-2.66-36.92-3.28-36.92-7.04s34.26-4.38 36.92-7.03c2.65-2.66 3.27-36.92 7.03-36.92s4.38 34.26 7.04 36.92c2.66 2.65 36.92 3.28 36.92 7.03s-34.26 4.38-36.92 7.04c-2.66 2.66-3.28 36.92-7.04 36.92z" color="#000" filter="url(#g)" opacity=".6" transform="matrix(.25751 -.14867 0 .25751 453.2 605.2)"/><path fill="url(#a)" fill-rule="evenodd" d="M571.57 842.73l46.03-26.57 46.03 26.57V718.71l-46.03-26.57-46.03 26.57z" color="#000" transform="translate(-139.15 -104.67)"/><path fill="url(#b)" fill-rule="evenodd" d="M-41.43 479.23l-46.03 26.57-46.02-26.57v-53.15l46.02-26.57 46.03 26.57z" color="#000" transform="translate(427.8 249.97)"/><path fill="url(#c)" fill-rule="evenodd" d="M-87.45 505.81v-53.15l46.02-26.57v53.15z" opacity=".4" transform="translate(427.8 249.97)"/><path fill="url(#d)" fill-rule="evenodd" d="M-41.43 426.08l-46.03 26.57-46.02-26.57 46.02-26.57z" opacity=".4" transform="translate(427.8 249.97)"/><path fill="none" stroke="#d7f4e3" stroke-linecap="round" stroke-linejoin="round" stroke-width="2" d="M346.49 699.08l33.75-19.49M300.46 679.6l39.89 23.03v46.06"/><path fill="none" stroke="#d7f4e3" stroke-linecap="round" stroke-width="5.63" d="M386.38 729.2l-46.03 26.57-46.03-26.57v-53.15l46.03-26.57 46.03 26.57z" color="#000"/><path fill="#87ffed" d="M-235.85 539.03a15.9 15.9 0 1 1-31.8 0 15.9 15.9 0 0 1 31.8 0z" color="#000" filter="url(#e)" opacity=".2" transform="translate(592.1 163.6)"/><path fill="#fff6cc" d="M-235.85 539.03a15.9 15.9 0 1 1-31.8 0 15.9 15.9 0 0 1 31.8 0z" color="#000" filter="url(#f)" opacity=".69" transform="translate(468.43 428.4) scale(.50875)"/><path fill="#FFF" d="M-235.85 539.03a15.9 15.9 0 1 1-31.8 0 15.9 15.9 0 0 1 31.8 0z" color="#000" filter="url(#f)" transform="translate(384.23 608.68) scale(.17428)"/><path fill="#FFF" d="M98.04 719.7c-3.76 0-4.38-34.26-7.03-36.92-2.66-2.66-36.92-3.28-36.92-7.04s34.26-4.38 36.92-7.03c2.65-2.66 3.27-36.92 7.03-36.92s4.38 34.26 7.04 36.92c2.66 2.65 36.92 3.28 36.92 7.03s-34.26 4.38-36.92 7.04c-2.66 2.66-3.28 36.92-7.04 36.92z" color="#000" filter="url(#g)" opacity=".6" transform="matrix(.25751 .14867 0 .25751 315.1 514.04)"/><path fill="#FFF" d="M98.04 719.7c-3.76 0-4.38-34.26-7.03-36.92-2.66-2.66-36.92-3.28-36.92-7.04s34.26-4.38 36.92-7.03c2.65-2.66 3.27-36.92 7.03-36.92s4.38 34.26 7.04 36.92c2.66 2.65 36.92 3.28 36.92 7.03s-34.26 4.38-36.92 7.04c-2.66 2.66-3.28 36.92-7.04 36.92z" color="#000" filter="url(#g)" opacity=".6" transform="matrix(.25751 -.14867 0 .25751 315.1 543.19)"/><path fill="url(#h)" fill-rule="evenodd" d="M-41.43 481l-46.02 26.58-46.03-26.58v-53.15l46.03-26.57 46.03 26.57z" color="#000" transform="translate(657.96 79.89)"/><path fill="url(#i)" fill-rule="evenodd" d="M-87.45 507.58v-53.15l46.02-26.57V481z" opacity=".4" transform="translate(657.96 79.89)"/><path fill="url(#j)" fill-rule="evenodd" d="M-41.43 427.85l-46.03 26.57-46.02-26.57 46.02-26.57z" opacity=".4" transform="translate(657.96 79.89)"/><path fill="none" stroke="#e9afdd" stroke-linecap="round" stroke-linejoin="round" stroke-width="2" d="M576.64 530.78l33.75-19.49M530.6 564.44l33.76 19.49M576.64 583.93l33.75-19.49M616.53 553.81v-38.98M610.4 504.2l-33.76-19.49M530.6 504.2l33.76-19.49M524.48 514.83v38.98M530.6 511.29l33.76 19.49M570.5 541.41v38.98"/><path fill="url(#a)" fill-rule="evenodd" d="M863.08 621.27l-46.03 26.57V701l-107.4-62v-53.15l46.03-26.58z" color="#000" transform="translate(-139.15 -104.67)"/><path fill="url(#b)" fill-rule="evenodd" d="M-41.43 479.23l-46.03 26.57-46.02-26.57v-53.15l46.02-26.57 46.03 26.57z" color="#000" transform="translate(182.32 -139.8)"/><path fill="url(#c)" fill-rule="evenodd" d="M-87.45 505.81v-53.15l46.02-26.57v53.15z" opacity=".4" transform="translate(182.32 -139.8)"/><path fill="url(#d)" fill-rule="evenodd" d="M-41.43 426.08l-46.03 26.57-46.02-26.57 46.02-26.57z" opacity=".4" transform="translate(182.32 -139.8)"/><path fill="none" stroke="#d7f4e3" stroke-linecap="round" stroke-linejoin="round" stroke-width="2" d="M101 309.31l33.75-19.49M54.97 289.83l39.89 23.03v46.07"/><path fill="none" stroke="#d7f4e3" stroke-linecap="round" stroke-width="5.63" d="M140.9 339.43l-46.04 26.58-46.03-26.58v-53.15l46.03-26.57 46.03 26.57z" color="#000"/><path fill="#87ffed" d="M-235.85 539.03a15.9 15.9 0 1 1-31.8 0 15.9 15.9 0 0 1 31.8 0z" color="#000" filter="url(#e)" opacity=".2" transform="translate(346.62 -226.17)"/><path fill="#fff6cc" d="M-235.85 539.03a15.9 15.9 0 1 1-31.8 0 15.9 15.9 0 0 1 31.8 0z" color="#000" filter="url(#f)" opacity=".69" transform="translate(222.94 38.63) scale(.50875)"/><path fill="#FFF" d="M-235.85 539.03a15.9 15.9 0 1 1-31.8 0 15.9 15.9 0 0 1 31.8 0z" color="#000" filter="url(#f)" transform="translate(138.74 218.91) scale(.17428)"/><path fill="#FFF" d="M98.04 719.7c-3.76 0-4.38-34.26-7.03-36.92-2.66-2.66-36.92-3.28-36.92-7.04s34.26-4.38 36.92-7.03c2.65-2.66 3.27-36.92 7.03-36.92s4.38 34.26 7.04 36.92c2.66 2.65 36.92 3.28 36.92 7.03s-34.26 4.38-36.92 7.04c-2.66 2.66-3.28 36.92-7.04 36.92z" color="#000" filter="url(#g)" opacity=".6" transform="matrix(.25751 .14867 0 .25751 69.62 124.27)"/><path fill="#FFF" d="M98.04 719.7c-3.76 0-4.38-34.26-7.03-36.92-2.66-2.66-36.92-3.28-36.92-7.04s34.26-4.38 36.92-7.03c2.65-2.66 3.27-36.92 7.03-36.92s4.38 34.26 7.04 36.92c2.66 2.65 36.92 3.28 36.92 7.03s-34.26 4.38-36.92 7.04c-2.66 2.66-3.28 36.92-7.04 36.92z" color="#000" filter="url(#g)" opacity=".6" transform="matrix(.25751 -.14867 0 .25751 69.62 153.42)"/><path fill="url(#b)" fill-rule="evenodd" d="M-41.43 479.23l-46.03 26.57-46.02-26.57v-53.15l46.02-26.57 46.03 26.57z" color="#000" transform="translate(719.35 -42.36)"/><path fill="url(#c)" fill-rule="evenodd" d="M-87.45 505.81v-53.15l46.02-26.57v53.15z" opacity=".4" transform="translate(719.35 -42.36)"/><path fill="url(#d)" fill-rule="evenodd" d="M-41.43 426.08l-46.03 26.57-46.02-26.57 46.02-26.57z" opacity=".4" transform="translate(719.35 -42.36)"/><path fill="none" stroke="#d7f4e3" stroke-linecap="round" stroke-linejoin="round" stroke-width="2" d="M638.03 406.75l33.75-19.48M592 387.27l39.89 23.04v46.06"/><path fill="none" stroke="#d7f4e3" stroke-linecap="round" stroke-width="5.63" d="M677.92 436.88l-46.03 26.57-46.03-26.57v-53.15l46.03-26.58 46.03 26.58z" color="#000"/><path fill="#87ffed" d="M-235.85 539.03a15.9 15.9 0 1 1-31.8 0 15.9 15.9 0 0 1 31.8 0z" color="#000" filter="url(#e)" opacity=".2" transform="translate(883.65 -128.73)"/><path fill="#fff6cc" d="M-235.85 539.03a15.9 15.9 0 1 1-31.8 0 15.9 15.9 0 0 1 31.8 0z" color="#000" filter="url(#f)" opacity=".69" transform="translate(759.97 136.07) scale(.50875)"/><path fill="#FFF" d="M-235.85 539.03a15.9 15.9 0 1 1-31.8 0 15.9 15.9 0 0 1 31.8 0z" color="#000" filter="url(#f)" transform="translate(675.77 316.35) scale(.17428)"/><path fill="#FFF" d="M98.04 719.7c-3.76 0-4.38-34.26-7.03-36.92-2.66-2.66-36.92-3.28-36.92-7.04s34.26-4.38 36.92-7.03c2.65-2.66 3.27-36.92 7.03-36.92s4.38 34.26 7.04 36.92c2.66 2.65 36.92 3.28 36.92 7.03s-34.26 4.38-36.92 7.04c-2.66 2.66-3.28 36.92-7.04 36.92z" color="#000" filter="url(#g)" opacity=".6" transform="matrix(.25751 .14867 0 .25751 606.65 221.71)"/><path fill="#FFF" d="M98.04 719.7c-3.76 0-4.38-34.26-7.03-36.92-2.66-2.66-36.92-3.28-36.92-7.04s34.26-4.38 36.92-7.03c2.65-2.66 3.27-36.92 7.03-36.92s4.38 34.26 7.04 36.92c2.66 2.65 36.92 3.28 36.92 7.03s-34.26 4.38-36.92 7.04c-2.66 2.66-3.28 36.92-7.04 36.92z" color="#000" filter="url(#g)" opacity=".6" transform="matrix(.25751 -.14867 0 .25751 606.65 250.87)"/><path fill="url(#h)" fill-rule="evenodd" d="M-41.43 481l-46.02 26.58-46.03-26.58v-53.15l46.03-26.57 46.03 26.57z" color="#000" transform="translate(611.93 106.47)"/><path fill="url(#i)" fill-rule="evenodd" d="M-87.45 507.58v-53.15l46.02-26.57V481z" opacity=".4" transform="translate(611.93 106.47)"/><path fill="url(#j)" fill-rule="evenodd" d="M-41.43 427.85l-46.03 26.57-46.02-26.57 46.02-26.57z" opacity=".4" transform="translate(611.93 106.47)"/><path fill="none" stroke="#e9afdd" stroke-linecap="round" stroke-linejoin="round" stroke-width="2" d="M530.6 557.36l33.76-19.49M484.58 591.02l33.75 19.49M530.6 610.51l33.76-19.49M570.5 580.39v-38.98M564.36 530.78l-33.75-19.49M484.58 530.78l33.75-19.49M478.45 541.41v38.98M484.58 537.87l33.75 19.49M524.47 567.99v38.98"/><path fill="url(#h)" fill-rule="evenodd" d="M-41.43 481l-46.02 26.58-46.03-26.58v-53.15l46.03-26.57 46.03 26.57z" color="#000" transform="translate(565.9 133.04)"/><path fill="url(#i)" fill-rule="evenodd" d="M-87.45 507.58v-53.15l46.02-26.57V481z" opacity=".4" transform="translate(565.9 133.04)"/><path fill="url(#j)" fill-rule="evenodd" d="M-41.43 427.85l-46.03 26.57-46.02-26.57 46.02-26.57z" opacity=".4" transform="translate(565.9 133.04)"/><path fill="none" stroke="#e9afdd" stroke-linecap="round" stroke-linejoin="round" stroke-width="2" d="M484.58 583.93l33.75-19.49M438.55 617.59l33.75 19.49M484.58 637.08l33.75-19.49M524.47 606.96v-38.98M518.33 557.35l-33.75-19.49M438.55 557.35l33.75-19.49M432.42 567.98v38.98M438.55 564.44l33.75 19.49M478.44 594.56v38.98"/><g><path fill="url(#h)" fill-rule="evenodd" d="M-41.43 481l-46.02 26.58-46.03-26.58v-53.15l46.03-26.57 46.03 26.57z" color="#000" transform="translate(519.87 159.62)"/><path fill="url(#i)" fill-rule="evenodd" d="M-87.45 507.58v-53.15l46.02-26.57V481z" opacity=".4" transform="translate(519.87 159.62)"/><path fill="url(#j)" fill-rule="evenodd" d="M-41.43 427.85l-46.03 26.57-46.02-26.57 46.02-26.57z" opacity=".4" transform="translate(519.87 159.62)"/><path fill="none" stroke="#e9afdd" stroke-linecap="round" stroke-linejoin="round" stroke-width="2" d="M438.55 610.51l33.75-19.49M392.52 644.17l33.75 19.49M438.55 663.66l33.75-19.49M478.44 633.54v-38.98M472.3 583.93l-33.75-19.49M392.52 583.93l33.75-19.49M386.39 594.56v38.98M392.52 591.02l33.75 19.49M432.41 621.14v38.98"/></g><g><path fill="url(#h)" fill-rule="evenodd" d="M-41.43 481l-46.02 26.58-46.03-26.58v-53.15l46.03-26.57 46.03 26.57z" color="#000" transform="translate(289.73 79.89)"/><path fill="url(#i)" fill-rule="evenodd" d="M-87.45 507.58v-53.15l46.02-26.57V481z" opacity=".4" transform="translate(289.73 79.89)"/><path fill="url(#j)" fill-rule="evenodd" d="M-41.43 427.85l-46.03 26.57-46.02-26.57 46.02-26.57z" opacity=".4" transform="translate(289.73 79.89)"/><path fill="none" stroke="#e9afdd" stroke-linecap="round" stroke-linejoin="round" stroke-width="2" d="M208.4 530.78l33.76-19.49M162.38 564.44l33.75 19.49M208.4 583.93l33.76-19.49M248.3 553.81v-38.98M242.16 504.2l-33.75-19.49M162.38 504.2l33.75-19.49M156.25 514.83v38.98M162.38 511.29l33.75 19.49M202.27 541.41v38.98"/></g><g><path fill="url(#h)" fill-rule="evenodd" d="M-41.43 481l-46.02 26.58-46.03-26.58v-53.15l46.03-26.57 46.03 26.57z" color="#000" transform="translate(335.76 106.47)"/><path fill="url(#i)" fill-rule="evenodd" d="M-87.45 507.58v-53.15l46.02-26.57V481z" opacity=".4" transform="translate(335.76 106.47)"/><path fill="url(#j)" fill-rule="evenodd" d="M-41.43 427.85l-46.03 26.57-46.02-26.57 46.02-26.57z" opacity=".4" transform="translate(335.76 106.47)"/><path fill="none" stroke="#e9afdd" stroke-linecap="round" stroke-linejoin="round" stroke-width="2" d="M254.44 557.36l33.75-19.49M208.4 591.02l33.76 19.49M254.44 610.51l33.75-19.49M294.33 580.39v-38.98M288.2 530.78l-33.76-19.49M208.4 530.78l33.76-19.49M202.28 541.41v38.98M208.4 537.87l33.76 19.49M248.3 567.99v38.98"/></g><g><path fill="url(#h)" fill-rule="evenodd" d="M-41.43 481l-46.02 26.58-46.03-26.58v-53.15l46.03-26.57 46.03 26.57z" color="#000" transform="translate(381.78 133.04)"/><path fill="url(#i)" fill-rule="evenodd" d="M-87.45 507.58v-53.15l46.02-26.57V481z" opacity=".4" transform="translate(381.78 133.04)"/><path fill="url(#j)" fill-rule="evenodd" d="M-41.43 427.85l-46.03 26.57-46.02-26.57 46.02-26.57z" opacity=".4" transform="translate(381.78 133.04)"/><path fill="none" stroke="#e9afdd" stroke-linecap="round" stroke-linejoin="round" stroke-width="2" d="M300.46 583.93l33.75-19.49M254.43 617.59l33.75 19.49M300.46 637.08l33.75-19.49M340.35 606.96v-38.98M334.21 557.35l-33.75-19.49M254.43 557.35l33.75-19.49M248.3 567.98v38.98M254.43 564.44l33.75 19.49M294.32 594.56v38.98"/></g><g><path fill="url(#h)" fill-rule="evenodd" d="M-41.43 481l-46.02 26.58-46.03-26.58v-53.15l46.03-26.57 46.03 26.57z" color="#000" transform="translate(427.8 159.62)"/><path fill="url(#i)" fill-rule="evenodd" d="M-87.45 507.58v-53.15l46.02-26.57V481z" opacity=".4" transform="translate(427.8 159.62)"/><path fill="url(#j)" fill-rule="evenodd" d="M-41.43 427.85l-46.03 26.57-46.02-26.57 46.02-26.57z" opacity=".4" transform="translate(427.8 159.62)"/><path fill="none" stroke="#e9afdd" stroke-linecap="round" stroke-linejoin="round" stroke-width="2" d="M346.49 610.51l33.75-19.49M300.46 644.17l33.75 19.49M346.49 663.66l33.75-19.49M386.38 633.54v-38.98M380.24 583.93l-33.75-19.49M300.46 583.93l33.75-19.49M294.33 594.56v38.98M300.46 591.02l33.75 19.49M340.35 621.14v38.98"/></g><g><path fill="url(#h)" fill-rule="evenodd" d="M-41.43 481l-46.02 26.58-46.03-26.58v-53.15l46.03-26.57 46.03 26.57z" color="#000" transform="translate(473.84 186.19)"/><path fill="url(#i)" fill-rule="evenodd" d="M-87.45 507.58v-53.15l46.02-26.57V481z" opacity=".4" transform="translate(473.84 186.19)"/><path fill="url(#j)" fill-rule="evenodd" d="M-41.43 427.85l-46.03 26.57-46.02-26.57 46.02-26.57z" opacity=".4" transform="translate(473.84 186.19)"/><path fill="none" stroke="#e9afdd" stroke-linecap="round" stroke-linejoin="round" stroke-width="2" d="M392.52 637.08l33.75-19.49M346.49 670.74l33.75 19.49M392.52 690.23l33.75-19.49M432.41 660.11v-38.98M426.27 610.5l-33.75-19.49M346.49 610.5l33.75-19.49M340.36 621.13v38.98M346.49 617.59l33.75 19.49M386.38 647.71v38.98"/></g><g><path fill="url(#h)" fill-rule="evenodd" d="M-41.43 481l-46.02 26.58-46.03-26.58v-53.15l46.03-26.57 46.03 26.57z" color="#000" transform="translate(565.9 79.89)"/><path fill="url(#i)" fill-rule="evenodd" d="M-87.45 507.58v-53.15l46.02-26.57V481z" opacity=".4" transform="translate(565.9 79.89)"/><path fill="url(#j)" fill-rule="evenodd" d="M-41.43 427.85l-46.03 26.57-46.02-26.57 46.02-26.57z" opacity=".4" transform="translate(565.9 79.89)"/><path fill="none" stroke="#e9afdd" stroke-linecap="round" stroke-linejoin="round" stroke-width="2" d="M484.58 530.78l33.75-19.49M438.55 564.44l33.75 19.49M484.58 583.93l33.75-19.49M524.47 553.81v-38.98M518.33 504.2l-33.75-19.49M438.55 504.2l33.75-19.49M432.42 514.83v38.98M438.55 511.29l33.75 19.49M478.44 541.41v38.98"/></g><g><path fill="url(#h)" fill-rule="evenodd" d="M-41.43 481l-46.02 26.58-46.03-26.58v-53.15l46.03-26.57 46.03 26.57z" color="#000" transform="translate(289.73 26.74)"/><path fill="url(#i)" fill-rule="evenodd" d="M-87.45 507.58v-53.15l46.02-26.57V481z" opacity=".4" transform="translate(289.73 26.74)"/><path fill="url(#j)" fill-rule="evenodd" d="M-41.43 427.85l-46.03 26.57-46.02-26.57 46.02-26.57z" opacity=".4" transform="translate(289.73 26.74)"/><path fill="none" stroke="#e9afdd" stroke-linecap="round" stroke-linejoin="round" stroke-width="2" d="M208.4 477.63l33.76-19.49M162.38 511.29l33.75 19.49M208.4 530.78l33.76-19.49M248.3 500.66v-38.98M242.16 451.05l-33.75-19.49M162.38 451.05l33.75-19.49M156.25 461.68v38.98M162.38 458.14l33.75 19.49M202.27 488.26v38.98"/></g><g><path fill="url(#h)" fill-rule="evenodd" d="M-41.43 481l-46.02 26.58-46.03-26.58v-53.15l46.03-26.57 46.03 26.57z" color="#000" transform="translate(335.76 53.32)"/><path fill="url(#i)" fill-rule="evenodd" d="M-87.45 507.58v-53.15l46.02-26.57V481z" opacity=".4" transform="translate(335.76 53.32)"/><path fill="url(#j)" fill-rule="evenodd" d="M-41.43 427.85l-46.03 26.57-46.02-26.57 46.02-26.57z" opacity=".4" transform="translate(335.76 53.32)"/><path fill="none" stroke="#e9afdd" stroke-linecap="round" stroke-linejoin="round" stroke-width="2" d="M254.44 504.21l33.75-19.49M208.4 537.87l33.76 19.49M254.44 557.36l33.75-19.49M294.33 527.24v-38.98M288.2 477.63l-33.76-19.49M208.4 477.63l33.76-19.49M202.28 488.26v38.98M208.4 484.72l33.76 19.49M248.3 514.84v38.98"/></g><g><path fill="url(#h)" fill-rule="evenodd" d="M-41.43 481l-46.02 26.58-46.03-26.58v-53.15l46.03-26.57 46.03 26.57z" color="#000" transform="translate(427.8 106.47)"/><path fill="url(#i)" fill-rule="evenodd" d="M-87.45 507.58v-53.15l46.02-26.57V481z" opacity=".4" transform="translate(427.8 106.47)"/><path fill="url(#j)" fill-rule="evenodd" d="M-41.43 427.85l-46.03 26.57-46.02-26.57 46.02-26.57z" opacity=".4" transform="translate(427.8 106.47)"/><path fill="none" stroke="#e9afdd" stroke-linecap="round" stroke-linejoin="round" stroke-width="2" d="M346.49 557.36l33.75-19.49M300.46 591.02l33.75 19.49M346.49 610.51l33.75-19.49M386.38 580.39v-38.98M380.24 530.78l-33.75-19.49M300.46 530.78l33.75-19.49M294.33 541.41v38.98M300.46 537.87l33.75 19.49M340.35 567.99v38.98"/></g><g><path fill="url(#h)" fill-rule="evenodd" d="M-41.43 481l-46.02 26.58-46.03-26.58v-53.15l46.03-26.57 46.03 26.57z" color="#000" transform="translate(473.84 133.04)"/><path fill="url(#i)" fill-rule="evenodd" d="M-87.45 507.58v-53.15l46.02-26.57V481z" opacity=".4" transform="translate(473.84 133.04)"/><path fill="url(#j)" fill-rule="evenodd" d="M-41.43 427.85l-46.03 26.57-46.02-26.57 46.02-26.57z" opacity=".4" transform="translate(473.84 133.04)"/><path fill="none" stroke="#e9afdd" stroke-linecap="round" stroke-linejoin="round" stroke-width="2" d="M392.52 583.93l33.75-19.49M346.49 617.59l33.75 19.49M392.52 637.08l33.75-19.49M432.41 606.96v-38.98M426.27 557.35l-33.75-19.49M346.49 557.35l33.75-19.49M340.36 567.98v38.98M346.49 564.44l33.75 19.49M386.38 594.56v38.98"/></g><g><path fill="url(#h)" fill-rule="evenodd" d="M-41.43 481l-46.02 26.58-46.03-26.58v-53.15l46.03-26.57 46.03 26.57z" color="#000" transform="translate(657.96 -26.41)"/><path fill="url(#i)" fill-rule="evenodd" d="M-87.45 507.58v-53.15l46.02-26.57V481z" opacity=".4" transform="translate(657.96 -26.41)"/><path fill="url(#j)" fill-rule="evenodd" d="M-41.43 427.85l-46.03 26.57-46.02-26.57 46.02-26.57z" opacity=".4" transform="translate(657.96 -26.41)"/><path fill="none" stroke="#e9afdd" stroke-linecap="round" stroke-linejoin="round" stroke-width="2" d="M576.64 424.48l33.75-19.49M530.6 458.14l33.76 19.49M576.64 477.63l33.75-19.49M616.53 447.5v-38.97M610.4 397.9l-33.76-19.5M530.6 397.9l33.76-19.49M524.48 408.53v38.97M530.6 404.99l33.76 19.49M570.5 435.1v38.98"/></g><g><path fill="url(#h)" fill-rule="evenodd" d="M-41.43 481l-46.02 26.58-46.03-26.58v-53.15l46.03-26.57 46.03 26.57z" color="#000" transform="translate(611.93 .17)"/><path fill="url(#i)" fill-rule="evenodd" d="M-87.45 507.58v-53.15l46.02-26.57V481z" opacity=".4" transform="translate(611.93 .17)"/><path fill="url(#j)" fill-rule="evenodd" d="M-41.43 427.85l-46.03 26.57-46.02-26.57 46.02-26.57z" opacity=".4" transform="translate(611.93 .17)"/><path fill="none" stroke="#e9afdd" stroke-linecap="round" stroke-linejoin="round" stroke-width="2" d="M530.6 451.06l33.76-19.49M484.58 484.72l33.75 19.49M530.6 504.21l33.76-19.49M570.5 474.09v-38.98M564.36 424.48l-33.75-19.49M484.58 424.48l33.75-19.49M478.45 435.11v38.98M484.58 431.57l33.75 19.49M524.47 461.69v38.98"/></g><g><path fill="url(#h)" fill-rule="evenodd" d="M-41.43 481l-46.02 26.58-46.03-26.58v-53.15l46.03-26.57 46.03 26.57z" color="#000" transform="translate(519.87 53.32)"/><path fill="url(#i)" fill-rule="evenodd" d="M-87.45 507.58v-53.15l46.02-26.57V481z" opacity=".4" transform="translate(519.87 53.32)"/><path fill="url(#j)" fill-rule="evenodd" d="M-41.43 427.85l-46.03 26.57-46.02-26.57 46.02-26.57z" opacity=".4" transform="translate(519.87 53.32)"/><path fill="none" stroke="#e9afdd" stroke-linecap="round" stroke-linejoin="round" stroke-width="2" d="M438.55 504.21l33.75-19.49M392.52 537.87l33.75 19.49M438.55 557.36l33.75-19.49M478.44 527.24v-38.98M472.3 477.63l-33.75-19.49M392.52 477.63l33.75-19.49M386.39 488.26v38.98M392.52 484.72l33.75 19.49M432.41 514.84v38.98"/></g><g><path fill="url(#h)" fill-rule="evenodd" d="M-41.43 481l-46.02 26.58-46.03-26.58v-53.15l46.03-26.57 46.03 26.57z" color="#000" transform="translate(289.73 -26.41)"/><path fill="url(#i)" fill-rule="evenodd" d="M-87.45 507.58v-53.15l46.02-26.57V481z" opacity=".4" transform="translate(289.73 -26.41)"/><path fill="url(#j)" fill-rule="evenodd" d="M-41.43 427.85l-46.03 26.57-46.02-26.57 46.02-26.57z" opacity=".4" transform="translate(289.73 -26.41)"/><path fill="none" stroke="#e9afdd" stroke-linecap="round" stroke-linejoin="round" stroke-width="2" d="M208.4 424.48l33.76-19.49M162.38 458.14l33.75 19.49M208.4 477.63l33.76-19.49M248.3 447.5v-38.97M242.16 397.9l-33.75-19.5M162.38 397.9l33.75-19.49M156.25 408.53v38.97M162.38 404.99l33.75 19.49M202.27 435.1v38.98"/></g><g><path fill="url(#h)" fill-rule="evenodd" d="M-41.43 481l-46.02 26.58-46.03-26.58v-53.15l46.03-26.57 46.03 26.57z" color="#000" transform="translate(335.76 .17)"/><path fill="url(#i)" fill-rule="evenodd" d="M-87.45 507.58v-53.15l46.02-26.57V481z" opacity=".4" transform="translate(335.76 .17)"/><path fill="url(#j)" fill-rule="evenodd" d="M-41.43 427.85l-46.03 26.57-46.02-26.57 46.02-26.57z" opacity=".4" transform="translate(335.76 .17)"/><path fill="none" stroke="#e9afdd" stroke-linecap="round" stroke-linejoin="round" stroke-width="2" d="M254.44 451.06l33.75-19.49M208.4 484.72l33.76 19.49M254.44 504.21l33.75-19.49M294.33 474.09v-38.98M288.2 424.48l-33.76-19.49M208.4 424.48l33.76-19.49M202.28 435.11v38.98M208.4 431.57l33.76 19.49M248.3 461.69v38.98"/></g><g><path fill="url(#h)" fill-rule="evenodd" d="M-41.43 481l-46.02 26.58-46.03-26.58v-53.15l46.03-26.57 46.03 26.57z" color="#000" transform="translate(381.78 26.74)"/><path fill="url(#i)" fill-rule="evenodd" d="M-87.45 507.58v-53.15l46.02-26.57V481z" opacity=".4" transform="translate(381.78 26.74)"/><path fill="url(#j)" fill-rule="evenodd" d="M-41.43 427.85l-46.03 26.57-46.02-26.57 46.02-26.57z" opacity=".4" transform="translate(381.78 26.74)"/><path fill="none" stroke="#e9afdd" stroke-linecap="round" stroke-linejoin="round" stroke-width="2" d="M300.46 477.63l33.75-19.49M254.43 511.29l33.75 19.49M300.46 530.78l33.75-19.49M340.35 500.66v-38.98M334.21 451.05l-33.75-19.49M254.43 451.05l33.75-19.49M248.3 461.68v38.98M254.43 458.14l33.75 19.49M294.32 488.26v38.98"/></g><g><path fill="url(#h)" fill-rule="evenodd" d="M-41.43 481l-46.02 26.58-46.03-26.58v-53.15l46.03-26.57 46.03 26.57z" color="#000" transform="translate(427.8 53.32)"/><path fill="url(#i)" fill-rule="evenodd" d="M-87.45 507.58v-53.15l46.02-26.57V481z" opacity=".4" transform="translate(427.8 53.32)"/><path fill="url(#j)" fill-rule="evenodd" d="M-41.43 427.85l-46.03 26.57-46.02-26.57 46.02-26.57z" opacity=".4" transform="translate(427.8 53.32)"/><path fill="none" stroke="#e9afdd" stroke-linecap="round" stroke-linejoin="round" stroke-width="2" d="M346.49 504.21l33.75-19.49M300.46 537.87l33.75 19.49M346.49 557.36l33.75-19.49M386.38 527.24v-38.98M380.24 477.63l-33.75-19.49M300.46 477.63l33.75-19.49M294.33 488.26v38.98M300.46 484.72l33.75 19.49M340.35 514.84v38.98"/></g><g><path fill="url(#h)" fill-rule="evenodd" d="M-41.43 481l-46.02 26.58-46.03-26.58v-53.15l46.03-26.57 46.03 26.57z" color="#000" transform="translate(473.84 79.89)"/><path fill="url(#i)" fill-rule="evenodd" d="M-87.45 507.58v-53.15l46.02-26.57V481z" opacity=".4" transform="translate(473.84 79.89)"/><path fill="url(#j)" fill-rule="evenodd" d="M-41.43 427.85l-46.03 26.57-46.02-26.57 46.02-26.57z" opacity=".4" transform="translate(473.84 79.89)"/><path fill="none" stroke="#e9afdd" stroke-linecap="round" stroke-linejoin="round" stroke-width="2" d="M392.52 530.78l33.75-19.49M346.49 564.44l33.75 19.49M392.52 583.93l33.75-19.49M432.41 553.81v-38.98M426.27 504.2l-33.75-19.49M346.49 504.2l33.75-19.49M340.36 514.83v38.98M346.49 511.29l33.75 19.49M386.38 541.41v38.98"/></g><g><path fill="url(#h)" fill-rule="evenodd" d="M-41.43 481l-46.02 26.58-46.03-26.58v-53.15l46.03-26.57 46.03 26.57z" color="#000" transform="translate(657.96 -79.56)"/><path fill="url(#i)" fill-rule="evenodd" d="M-87.45 507.58v-53.15l46.02-26.57V481z" opacity=".4" transform="translate(657.96 -79.56)"/><path fill="url(#j)" fill-rule="evenodd" d="M-41.43 427.85l-46.03 26.57-46.02-26.57 46.02-26.57z" opacity=".4" transform="translate(657.96 -79.56)"/><path fill="none" stroke="#e9afdd" stroke-linecap="round" stroke-linejoin="round" stroke-width="2" d="M576.64 371.33l33.75-19.49M530.6 405l33.76 19.48M576.64 424.48L610.39 405M616.53 394.36v-38.98M610.4 344.75l-33.76-19.49M530.6 344.75l33.76-19.49M524.48 355.38v38.98M530.6 351.84l33.76 19.49M570.5 381.96v38.98"/></g><g><path fill="url(#h)" fill-rule="evenodd" d="M-41.43 481l-46.02 26.58-46.03-26.58v-53.15l46.03-26.57 46.03 26.57z" color="#000" transform="translate(611.93 -52.98)"/><path fill="url(#i)" fill-rule="evenodd" d="M-87.45 507.58v-53.15l46.02-26.57V481z" opacity=".4" transform="translate(611.93 -52.98)"/><path fill="url(#j)" fill-rule="evenodd" d="M-41.43 427.85l-46.03 26.57-46.02-26.57 46.02-26.57z" opacity=".4" transform="translate(611.93 -52.98)"/><path fill="none" stroke="#e9afdd" stroke-linecap="round" stroke-linejoin="round" stroke-width="2" d="M530.6 397.9l33.76-19.48M484.58 431.57l33.75 19.49M530.6 451.06l33.76-19.49M570.5 420.94v-38.98M564.36 371.33l-33.75-19.5M484.58 371.33l33.75-19.49M478.45 381.96v38.97M484.58 378.42l33.75 19.49M524.47 408.54v38.97"/></g><g><path fill="url(#h)" fill-rule="evenodd" d="M-41.43 481l-46.02 26.58-46.03-26.58v-53.15l46.03-26.57 46.03 26.57z" color="#000" transform="translate(565.9 -26.41)"/><path fill="url(#i)" fill-rule="evenodd" d="M-87.45 507.58v-53.15l46.02-26.57V481z" opacity=".4" transform="translate(565.9 -26.41)"/><path fill="url(#j)" fill-rule="evenodd" d="M-41.43 427.85l-46.03 26.57-46.02-26.57 46.02-26.57z" opacity=".4" transform="translate(565.9 -26.41)"/><path fill="none" stroke="#e9afdd" stroke-linecap="round" stroke-linejoin="round" stroke-width="2" d="M484.58 424.48l33.75-19.49M438.55 458.14l33.75 19.49M484.58 477.63l33.75-19.49M524.47 447.5v-38.97M518.33 397.9l-33.75-19.5M438.55 397.9l33.75-19.49M432.42 408.53v38.97M438.55 404.99l33.75 19.49M478.44 435.1v38.98"/></g><g><path fill="url(#h)" fill-rule="evenodd" d="M-41.43 481l-46.02 26.58-46.03-26.58v-53.15l46.03-26.57 46.03 26.57z" color="#000" transform="translate(519.87 .17)"/><path fill="url(#i)" fill-rule="evenodd" d="M-87.45 507.58v-53.15l46.02-26.57V481z" opacity=".4" transform="translate(519.87 .17)"/><path fill="url(#j)" fill-rule="evenodd" d="M-41.43 427.85l-46.03 26.57-46.02-26.57 46.02-26.57z" opacity=".4" transform="translate(519.87 .17)"/><path fill="none" stroke="#e9afdd" stroke-linecap="round" stroke-linejoin="round" stroke-width="2" d="M438.55 451.06l33.75-19.49M392.52 484.72l33.75 19.49M438.55 504.21l33.75-19.49M478.44 474.09v-38.98M472.3 424.48l-33.75-19.49M392.52 424.48l33.75-19.49M386.39 435.11v38.98M392.52 431.57l33.75 19.49M432.41 461.69v38.98"/></g><g><path fill="url(#h)" fill-rule="evenodd" d="M-41.43 481l-46.02 26.58-46.03-26.58v-53.15l46.03-26.57 46.03 26.57z" color="#000" transform="translate(289.73 -79.56)"/><path fill="url(#i)" fill-rule="evenodd" d="M-87.45 507.58v-53.15l46.02-26.57V481z" opacity=".4" transform="translate(289.73 -79.56)"/><path fill="url(#j)" fill-rule="evenodd" d="M-41.43 427.85l-46.03 26.57-46.02-26.57 46.02-26.57z" opacity=".4" transform="translate(289.73 -79.56)"/><path fill="none" stroke="#e9afdd" stroke-linecap="round" stroke-linejoin="round" stroke-width="2" d="M208.4 371.33l33.76-19.49M162.38 405l33.75 19.48M208.4 424.48L242.17 405M248.3 394.36v-38.98M242.16 344.75l-33.75-19.49M162.38 344.75l33.75-19.49M156.25 355.38v38.98M162.38 351.84l33.75 19.49M202.27 381.96v38.98"/></g><g><path fill="url(#h)" fill-rule="evenodd" d="M-41.43 481l-46.02 26.58-46.03-26.58v-53.15l46.03-26.57 46.03 26.57z" color="#000" transform="translate(335.76 -52.98)"/><path fill="url(#i)" fill-rule="evenodd" d="M-87.45 507.58v-53.15l46.02-26.57V481z" opacity=".4" transform="translate(335.76 -52.98)"/><path fill="url(#j)" fill-rule="evenodd" d="M-41.43 427.85l-46.03 26.57-46.02-26.57 46.02-26.57z" opacity=".4" transform="translate(335.76 -52.98)"/><path fill="none" stroke="#e9afdd" stroke-linecap="round" stroke-linejoin="round" stroke-width="2" d="M254.44 397.9l33.75-19.48M208.4 431.57l33.76 19.49M254.44 451.06l33.75-19.49M294.33 420.94v-38.98M288.2 371.33l-33.76-19.5M208.4 371.33l33.76-19.49M202.28 381.96v38.97M208.4 378.42l33.76 19.49M248.3 408.54v38.97"/></g><g><path fill="url(#h)" fill-rule="evenodd" d="M-41.43 481l-46.02 26.58-46.03-26.58v-53.15l46.03-26.57 46.03 26.57z" color="#000" transform="translate(381.78 -26.41)"/><path fill="url(#i)" fill-rule="evenodd" d="M-87.45 507.58v-53.15l46.02-26.57V481z" opacity=".4" transform="translate(381.78 -26.41)"/><path fill="url(#j)" fill-rule="evenodd" d="M-41.43 427.85l-46.03 26.57-46.02-26.57 46.02-26.57z" opacity=".4" transform="translate(381.78 -26.41)"/><path fill="none" stroke="#e9afdd" stroke-linecap="round" stroke-linejoin="round" stroke-width="2" d="M300.46 424.48l33.75-19.49M254.43 458.14l33.75 19.49M300.46 477.63l33.75-19.49M340.35 447.5v-38.97M334.21 397.9l-33.75-19.5M254.43 397.9l33.75-19.49M248.3 408.53v38.97M254.43 404.99l33.75 19.49M294.32 435.1v38.98"/></g><g><path fill="url(#h)" fill-rule="evenodd" d="M-41.43 481l-46.02 26.58-46.03-26.58v-53.15l46.03-26.57 46.03 26.57z" color="#000" transform="translate(473.84 26.74)"/><path fill="url(#i)" fill-rule="evenodd" d="M-87.45 507.58v-53.15l46.02-26.57V481z" opacity=".4" transform="translate(473.84 26.74)"/><path fill="url(#j)" fill-rule="evenodd" d="M-41.43 427.85l-46.03 26.57-46.02-26.57 46.02-26.57z" opacity=".4" transform="translate(473.84 26.74)"/><path fill="none" stroke="#e9afdd" stroke-linecap="round" stroke-linejoin="round" stroke-width="2" d="M392.52 477.63l33.75-19.49M346.49 511.29l33.75 19.49M392.52 530.78l33.75-19.49M432.41 500.66v-38.98M426.27 451.05l-33.75-19.49M346.49 451.05l33.75-19.49M340.36 461.68v38.98M346.49 458.14l33.75 19.49M386.38 488.26v38.98"/></g><g><path fill="url(#h)" fill-rule="evenodd" d="M-41.43 481l-46.02 26.58-46.03-26.58v-53.15l46.03-26.57 46.03 26.57z" color="#000" transform="translate(473.84 -239.01)"/><path fill="url(#i)" fill-rule="evenodd" d="M-87.45 507.58v-53.15l46.02-26.57V481z" opacity=".4" transform="translate(473.84 -239.01)"/><path fill="url(#j)" fill-rule="evenodd" d="M-41.43 427.85l-46.03 26.57-46.02-26.57 46.02-26.57z" opacity=".4" transform="translate(473.84 -239.01)"/><path fill="none" stroke="#e9afdd" stroke-linecap="round" stroke-linejoin="round" stroke-width="2" d="M392.52 211.88l33.75-19.49M346.49 245.54l33.75 19.49M392.52 265.03l33.75-19.49M432.41 234.91v-38.98M426.27 185.3l-33.75-19.49M346.49 185.3l33.75-19.49M340.36 195.93v38.98M346.49 192.39l33.75 19.49M386.38 222.51v38.98"/></g><g><path fill="url(#h)" fill-rule="evenodd" d="M-41.43 481l-46.02 26.58-46.03-26.58v-53.15l46.03-26.57 46.03 26.57z" color="#000" transform="translate(519.87 -212.43)"/><path fill="url(#i)" fill-rule="evenodd" d="M-87.45 507.58v-53.15l46.02-26.57V481z" opacity=".4" transform="translate(519.87 -212.43)"/><path fill="url(#j)" fill-rule="evenodd" d="M-41.43 427.85l-46.03 26.57-46.02-26.57 46.02-26.57z" opacity=".4" transform="translate(519.87 -212.43)"/><path fill="none" stroke="#e9afdd" stroke-linecap="round" stroke-linejoin="round" stroke-width="2" d="M438.55 238.46l33.75-19.49M392.52 272.12l33.75 19.49M438.55 291.61l33.75-19.49M478.44 261.49v-38.98M472.3 211.88l-33.75-19.49M392.52 211.88l33.75-19.49M386.39 222.51v38.98M392.52 218.97l33.75 19.49M432.41 249.09v38.98"/></g><g><path fill="url(#h)" fill-rule="evenodd" d="M-41.43 481l-46.02 26.58-46.03-26.58v-53.15l46.03-26.57 46.03 26.57z" color="#000" transform="translate(565.9 -185.86)"/><path fill="url(#i)" fill-rule="evenodd" d="M-87.45 507.58v-53.15l46.02-26.57V481z" opacity=".4" transform="translate(565.9 -185.86)"/><path fill="url(#j)" fill-rule="evenodd" d="M-41.43 427.85l-46.03 26.57-46.02-26.57 46.02-26.57z" opacity=".4" transform="translate(565.9 -185.86)"/><path fill="none" stroke="#e9afdd" stroke-linecap="round" stroke-linejoin="round" stroke-width="2" d="M484.58 265.03l33.75-19.49M438.55 298.7l33.75 19.48M484.58 318.18l33.75-19.49M524.47 288.06V249.1M518.33 238.45l-33.75-19.49M438.55 238.45l33.75-19.49M432.42 249.08v38.98M438.55 245.54l33.75 19.49M478.44 275.66v38.98"/></g><g><path fill="url(#h)" fill-rule="evenodd" d="M-41.43 481l-46.02 26.58-46.03-26.58v-53.15l46.03-26.57 46.03 26.57z" color="#000" transform="translate(611.93 -159.28)"/><path fill="url(#i)" fill-rule="evenodd" d="M-87.45 507.58v-53.15l46.02-26.57V481z" opacity=".4" transform="translate(611.93 -159.28)"/><path fill="url(#j)" fill-rule="evenodd" d="M-41.43 427.85l-46.03 26.57-46.02-26.57 46.02-26.57z" opacity=".4" transform="translate(611.93 -159.28)"/><path fill="none" stroke="#e9afdd" stroke-linecap="round" stroke-linejoin="round" stroke-width="2" d="M530.6 291.6l33.76-19.48M484.58 325.27l33.75 19.48M530.6 344.76l33.76-19.5M570.5 314.64v-38.98M564.36 265.03l-33.75-19.5M484.58 265.03l33.75-19.5M478.45 275.66v38.97M484.58 272.12l33.75 19.48M524.47 302.24v38.97"/></g><g><path fill="url(#h)" fill-rule="evenodd" d="M-41.43 481l-46.02 26.58-46.03-26.58v-53.15l46.03-26.57 46.03 26.57z" color="#000" transform="translate(427.8 -212.43)"/><path fill="url(#i)" fill-rule="evenodd" d="M-87.45 507.58v-53.15l46.02-26.57V481z" opacity=".4" transform="translate(427.8 -212.43)"/><path fill="url(#j)" fill-rule="evenodd" d="M-41.43 427.85l-46.03 26.57-46.02-26.57 46.02-26.57z" opacity=".4" transform="translate(427.8 -212.43)"/><path fill="none" stroke="#e9afdd" stroke-linecap="round" stroke-linejoin="round" stroke-width="2" d="M346.49 238.46l33.75-19.49M300.46 272.12l33.75 19.49M346.49 291.61l33.75-19.49M386.38 261.49v-38.98M380.24 211.88l-33.75-19.49M300.46 211.88l33.75-19.49M294.33 222.51v38.98M300.46 218.97l33.75 19.49M340.35 249.09v38.98"/></g><g><path fill="url(#h)" fill-rule="evenodd" d="M-41.43 481l-46.02 26.58-46.03-26.58v-53.15l46.03-26.57 46.03 26.57z" color="#000" transform="translate(565.9 -132.7)"/><path fill="url(#i)" fill-rule="evenodd" d="M-87.45 507.58v-53.15l46.02-26.57V481z" opacity=".4" transform="translate(565.9 -132.7)"/><path fill="url(#j)" fill-rule="evenodd" d="M-41.43 427.85l-46.03 26.57-46.02-26.57 46.02-26.57z" opacity=".4" transform="translate(565.9 -132.7)"/><path fill="none" stroke="#e9afdd" stroke-linecap="round" stroke-linejoin="round" stroke-width="2" d="M484.58 318.18l33.75-19.49M438.55 351.84l33.75 19.49M484.58 371.33l33.75-19.49M524.47 341.21v-38.97M518.33 291.6l-33.75-19.49M438.55 291.6l33.75-19.49M432.42 302.23v38.98M438.55 298.7l33.75 19.48M478.44 328.81v38.98"/></g><g><path fill="url(#h)" fill-rule="evenodd" d="M-41.43 481l-46.02 26.58-46.03-26.58v-53.15l46.03-26.57 46.03 26.57z" color="#000" transform="translate(611.93 -106.13)"/><path fill="url(#i)" fill-rule="evenodd" d="M-87.45 507.58v-53.15l46.02-26.57V481z" opacity=".4" transform="translate(611.93 -106.13)"/><path fill="url(#j)" fill-rule="evenodd" d="M-41.43 427.85l-46.03 26.57-46.02-26.57 46.02-26.57z" opacity=".4" transform="translate(611.93 -106.13)"/><path fill="none" stroke="#e9afdd" stroke-linecap="round" stroke-linejoin="round" stroke-width="2" d="M530.6 344.76l33.76-19.5M484.58 378.42l33.75 19.48M530.6 397.9l33.76-19.48M570.5 367.79V328.8M564.36 318.18l-33.75-19.5M484.58 318.18l33.75-19.5M478.45 328.8v38.98M484.58 325.27l33.75 19.48M524.47 355.39v38.97"/></g><g><path fill="url(#h)" fill-rule="evenodd" d="M-41.43 481l-46.02 26.58-46.03-26.58v-53.15l46.03-26.57 46.03 26.57z" color="#000" transform="translate(381.78 -185.86)"/><path fill="url(#i)" fill-rule="evenodd" d="M-87.45 507.58v-53.15l46.02-26.57V481z" opacity=".4" transform="translate(381.78 -185.86)"/><path fill="url(#j)" fill-rule="evenodd" d="M-41.43 427.85l-46.03 26.57-46.02-26.57 46.02-26.57z" opacity=".4" transform="translate(381.78 -185.86)"/><path fill="none" stroke="#e9afdd" stroke-linecap="round" stroke-linejoin="round" stroke-width="2" d="M300.46 265.03l33.75-19.49M254.43 298.7l33.75 19.48M300.46 318.18l33.75-19.49M340.35 288.06V249.1M334.21 238.45l-33.75-19.49M254.43 238.45l33.75-19.49M248.3 249.08v38.98M254.43 245.54l33.75 19.49M294.32 275.66v38.98"/></g><g><path fill="url(#h)" fill-rule="evenodd" d="M-41.43 481l-46.02 26.58-46.03-26.58v-53.15l46.03-26.57 46.03 26.57z" color="#000" transform="translate(427.8 -159.28)"/><path fill="url(#i)" fill-rule="evenodd" d="M-87.45 507.58v-53.15l46.02-26.57V481z" opacity=".4" transform="translate(427.8 -159.28)"/><path fill="url(#j)" fill-rule="evenodd" d="M-41.43 427.85l-46.03 26.57-46.02-26.57 46.02-26.57z" opacity=".4" transform="translate(427.8 -159.28)"/><path fill="none" stroke="#e9afdd" stroke-linecap="round" stroke-linejoin="round" stroke-width="2" d="M346.49 291.6l33.75-19.48M300.46 325.27l33.75 19.48M346.49 344.76l33.75-19.5M386.38 314.64v-38.98M380.24 265.03l-33.75-19.5M300.46 265.03l33.75-19.5M294.33 275.66v38.97M300.46 272.12l33.75 19.48M340.35 302.24v38.97"/></g><g><path fill="url(#h)" fill-rule="evenodd" d="M-41.43 481l-46.02 26.58-46.03-26.58v-53.15l46.03-26.57 46.03 26.57z" color="#000" transform="translate(473.84 -132.7)"/><path fill="url(#i)" fill-rule="evenodd" d="M-87.45 507.58v-53.15l46.02-26.57V481z" opacity=".4" transform="translate(473.84 -132.7)"/><path fill="url(#j)" fill-rule="evenodd" d="M-41.43 427.85l-46.03 26.57-46.02-26.57 46.02-26.57z" opacity=".4" transform="translate(473.84 -132.7)"/><path fill="none" stroke="#e9afdd" stroke-linecap="round" stroke-linejoin="round" stroke-width="2" d="M392.52 318.18l33.75-19.49M346.49 351.84l33.75 19.49M392.52 371.33l33.75-19.49M432.41 341.21v-38.97M426.27 291.6l-33.75-19.49M346.49 291.6l33.75-19.49M340.36 302.23v38.98M346.49 298.7l33.75 19.48M386.38 328.81v38.98"/></g><g><path fill="url(#h)" fill-rule="evenodd" d="M-41.43 481l-46.02 26.58-46.03-26.58v-53.15l46.03-26.57 46.03 26.57z" color="#000" transform="translate(565.9 -79.56)"/><path fill="url(#i)" fill-rule="evenodd" d="M-87.45 507.58v-53.15l46.02-26.57V481z" opacity=".4" transform="translate(565.9 -79.56)"/><path fill="url(#j)" fill-rule="evenodd" d="M-41.43 427.85l-46.03 26.57-46.02-26.57 46.02-26.57z" opacity=".4" transform="translate(565.9 -79.56)"/><path fill="none" stroke="#e9afdd" stroke-linecap="round" stroke-linejoin="round" stroke-width="2" d="M484.58 371.33l33.75-19.49M438.55 405l33.75 19.48M484.58 424.48L518.33 405M524.47 394.36v-38.98M518.33 344.75l-33.75-19.49M438.55 344.75l33.75-19.49M432.42 355.38v38.98M438.55 351.84l33.75 19.49M478.44 381.96v38.98"/></g><g><path fill="url(#h)" fill-rule="evenodd" d="M-41.43 481l-46.02 26.58-46.03-26.58v-53.15l46.03-26.57 46.03 26.57z" color="#000" transform="translate(335.76 -159.28)"/><path fill="url(#i)" fill-rule="evenodd" d="M-87.45 507.58v-53.15l46.02-26.57V481z" opacity=".4" transform="translate(335.76 -159.28)"/><path fill="url(#j)" fill-rule="evenodd" d="M-41.43 427.85l-46.03 26.57-46.02-26.57 46.02-26.57z" opacity=".4" transform="translate(335.76 -159.28)"/><path fill="none" stroke="#e9afdd" stroke-linecap="round" stroke-linejoin="round" stroke-width="2" d="M254.44 291.6l33.75-19.48M208.4 325.27l33.76 19.48M254.44 344.76l33.75-19.5M294.33 314.64v-38.98M288.2 265.03l-33.76-19.5M208.4 265.03l33.76-19.5M202.28 275.66v38.97M208.4 272.12l33.76 19.48M248.3 302.24v38.97"/></g><g><path fill="url(#h)" fill-rule="evenodd" d="M-41.43 481l-46.02 26.58-46.03-26.58v-53.15l46.03-26.57 46.03 26.57z" color="#000" transform="translate(381.78 -132.7)"/><path fill="url(#i)" fill-rule="evenodd" d="M-87.45 507.58v-53.15l46.02-26.57V481z" opacity=".4" transform="translate(381.78 -132.7)"/><path fill="url(#j)" fill-rule="evenodd" d="M-41.43 427.85l-46.03 26.57-46.02-26.57 46.02-26.57z" opacity=".4" transform="translate(381.78 -132.7)"/><path fill="none" stroke="#e9afdd" stroke-linecap="round" stroke-linejoin="round" stroke-width="2" d="M300.46 318.18l33.75-19.49M254.43 351.84l33.75 19.49M300.46 371.33l33.75-19.49M340.35 341.21v-38.97M334.21 291.6l-33.75-19.49M254.43 291.6l33.75-19.49M248.3 302.23v38.98M254.43 298.7l33.75 19.48M294.32 328.81v38.98"/></g><g><path fill="url(#h)" fill-rule="evenodd" d="M-41.43 481l-46.02 26.58-46.03-26.58v-53.15l46.03-26.57 46.03 26.57z" color="#000" transform="translate(473.84 -79.56)"/><path fill="url(#i)" fill-rule="evenodd" d="M-87.45 507.58v-53.15l46.02-26.57V481z" opacity=".4" transform="translate(473.84 -79.56)"/><path fill="url(#j)" fill-rule="evenodd" d="M-41.43 427.85l-46.03 26.57-46.02-26.57 46.02-26.57z" opacity=".4" transform="translate(473.84 -79.56)"/><path fill="none" stroke="#e9afdd" stroke-linecap="round" stroke-linejoin="round" stroke-width="2" d="M392.52 371.33l33.75-19.49M346.49 405l33.75 19.48M392.52 424.48L426.27 405M432.41 394.36v-38.98M426.27 344.75l-33.75-19.49M346.49 344.75l33.75-19.49M340.36 355.38v38.98M346.49 351.84l33.75 19.49M386.38 381.96v38.98"/></g><g><path fill="url(#h)" fill-rule="evenodd" d="M-41.43 481l-46.02 26.58-46.03-26.58v-53.15l46.03-26.57 46.03 26.57z" color="#000" transform="translate(519.87 -52.98)"/><path fill="url(#i)" fill-rule="evenodd" d="M-87.45 507.58v-53.15l46.02-26.57V481z" opacity=".4" transform="translate(519.87 -52.98)"/><path fill="url(#j)" fill-rule="evenodd" d="M-41.43 427.85l-46.03 26.57-46.02-26.57 46.02-26.57z" opacity=".4" transform="translate(519.87 -52.98)"/><path fill="none" stroke="#e9afdd" stroke-linecap="round" stroke-linejoin="round" stroke-width="2" d="M438.55 397.9l33.75-19.48M392.52 431.57l33.75 19.49M438.55 451.06l33.75-19.49M478.44 420.94v-38.98M472.3 371.33l-33.75-19.5M392.52 371.33l33.75-19.49M386.39 381.96v38.97M392.52 378.42l33.75 19.49M432.41 408.54v38.97"/></g><g><path fill="url(#h)" fill-rule="evenodd" d="M-41.43 481l-46.02 26.58-46.03-26.58v-53.15l46.03-26.57 46.03 26.57z" color="#000" transform="translate(289.73 -132.7)"/><path fill="url(#i)" fill-rule="evenodd" d="M-87.45 507.58v-53.15l46.02-26.57V481z" opacity=".4" transform="translate(289.73 -132.7)"/><path fill="url(#j)" fill-rule="evenodd" d="M-41.43 427.85l-46.03 26.57-46.02-26.57 46.02-26.57z" opacity=".4" transform="translate(289.73 -132.7)"/><path fill="none" stroke="#e9afdd" stroke-linecap="round" stroke-linejoin="round" stroke-width="2" d="M208.4 318.18l33.76-19.49M162.38 351.84l33.75 19.49M208.4 371.33l33.76-19.49M248.3 341.21v-38.97M242.16 291.6l-33.75-19.49M162.38 291.6l33.75-19.49M156.25 302.23v38.98M162.38 298.7l33.75 19.48M202.27 328.81v38.98"/></g><g><path fill="url(#h)" fill-rule="evenodd" d="M-41.43 481l-46.02 26.58-46.03-26.58v-53.15l46.03-26.57 46.03 26.57z" color="#000" transform="translate(381.78 -79.56)"/><path fill="url(#i)" fill-rule="evenodd" d="M-87.45 507.58v-53.15l46.02-26.57V481z" opacity=".4" transform="translate(381.78 -79.56)"/><path fill="url(#j)" fill-rule="evenodd" d="M-41.43 427.85l-46.03 26.57-46.02-26.57 46.02-26.57z" opacity=".4" transform="translate(381.78 -79.56)"/><path fill="none" stroke="#e9afdd" stroke-linecap="round" stroke-linejoin="round" stroke-width="2" d="M300.46 371.33l33.75-19.49M254.43 405l33.75 19.48M300.46 424.48L334.2 405M340.35 394.36v-38.98M334.21 344.75l-33.75-19.49M254.43 344.75l33.75-19.49M248.3 355.38v38.98M254.43 351.84l33.75 19.49M294.32 381.96v38.98"/></g><path fill="none" stroke="#e9afdd" stroke-linecap="round" stroke-width="5.63" d="M156.24 295.15l230.14-132.87 184.12 106.3v53.15l46.03 26.57v106.3l-46.03 26.58 46.03 26.57v53.15L386.39 693.78 156.25 560.9z"/><g><path fill="url(#h)" fill-rule="evenodd" d="M-41.43 481l-46.02 26.58-46.03-26.58v-53.15l46.03-26.57 46.03 26.57z" color="#000" transform="translate(427.8 -52.98)"/><path fill="url(#i)" fill-rule="evenodd" d="M-87.45 507.58v-53.15l46.02-26.57V481z" opacity=".4" transform="translate(427.8 -52.98)"/><path fill="url(#j)" fill-rule="evenodd" d="M-41.43 427.85l-46.03 26.57-46.02-26.57 46.02-26.57z" opacity=".4" transform="translate(427.8 -52.98)"/><path fill="none" stroke="#e9afdd" stroke-linecap="round" stroke-linejoin="round" stroke-width="2" d="M346.49 397.9l33.75-19.48M300.46 431.57l33.75 19.49M346.49 451.06l33.75-19.49M386.38 420.94v-38.98M380.24 371.33l-33.75-19.5M300.46 371.33l33.75-19.49M294.33 381.96v38.97M300.46 378.42l33.75 19.49M340.35 408.54v38.97"/></g><g><path fill="url(#h)" fill-rule="evenodd" d="M-41.43 481l-46.02 26.58-46.03-26.58v-53.15l46.03-26.57 46.03 26.57z" color="#000" transform="translate(473.84 -26.41)"/><path fill="url(#i)" fill-rule="evenodd" d="M-87.45 507.58v-53.15l46.02-26.57V481z" opacity=".4" transform="translate(473.84 -26.41)"/><path fill="url(#j)" fill-rule="evenodd" d="M-41.43 427.85l-46.03 26.57-46.02-26.57 46.02-26.57z" opacity=".4" transform="translate(473.84 -26.41)"/><path fill="none" stroke="#e9afdd" stroke-linecap="round" stroke-linejoin="round" stroke-width="2" d="M392.52 424.48l33.75-19.49M346.49 458.14l33.75 19.49M392.52 477.63l33.75-19.49M432.41 447.5v-38.97M426.27 397.9l-33.75-19.5M346.49 397.9l33.75-19.49M340.36 408.53v38.97M346.49 404.99l33.75 19.49M386.38 435.1v38.98"/></g><path fill="url(#a)" fill-rule="evenodd" d="M187.99 514.97l46.03 26.57v53.16l153.43-88.59v-53.15l46.03-26.57-46.03-26.58z" transform="translate(-139.15 -104.67)"/><g><path fill="url(#b)" fill-rule="evenodd" d="M-41.43 479.23l-46.03 26.57-46.02-26.57v-53.15l46.02-26.57 46.03 26.57z" color="#000" transform="translate(136.3 10.79)"/><path fill="url(#c)" fill-rule="evenodd" d="M-87.45 505.81v-53.15l46.02-26.57v53.15z" opacity=".4" transform="translate(136.3 10.79)"/><path fill="url(#d)" fill-rule="evenodd" d="M-41.43 426.08l-46.03 26.57-46.02-26.57 46.02-26.57z" opacity=".4" transform="translate(136.3 10.79)"/><path fill="none" stroke="#d7f4e3" stroke-linecap="round" stroke-linejoin="round" stroke-width="2" d="M54.98 459.9l33.75-19.49M8.95 440.42l39.89 23.03v46.06"/><path fill="none" stroke="#d7f4e3" stroke-linecap="round" stroke-width="5.63" d="M94.87 490.02l-46.03 26.57-46.03-26.57v-53.15l46.03-26.57 46.03 26.57z" color="#000"/><path fill="#87ffed" d="M-235.85 539.03a15.9 15.9 0 1 1-31.8 0 15.9 15.9 0 0 1 31.8 0z" color="#000" filter="url(#e)" opacity=".2" transform="translate(300.6 -75.58)"/><path fill="#fff6cc" d="M-235.85 539.03a15.9 15.9 0 1 1-31.8 0 15.9 15.9 0 0 1 31.8 0z" color="#000" filter="url(#f)" opacity=".69" transform="translate(176.92 189.22) scale(.50875)"/><path fill="#FFF" d="M-235.85 539.03a15.9 15.9 0 1 1-31.8 0 15.9 15.9 0 0 1 31.8 0z" color="#000" filter="url(#f)" transform="translate(92.72 369.5) scale(.17428)"/><path fill="#FFF" d="M98.04 719.7c-3.76 0-4.38-34.26-7.03-36.92-2.66-2.66-36.92-3.28-36.92-7.04s34.26-4.38 36.92-7.03c2.65-2.66 3.27-36.92 7.03-36.92s4.38 34.26 7.04 36.92c2.66 2.65 36.92 3.28 36.92 7.03s-34.26 4.38-36.92 7.04c-2.66 2.66-3.28 36.92-7.04 36.92z" color="#000" filter="url(#g)" opacity=".6" transform="matrix(.25751 .14867 0 .25751 23.6 274.86)"/><path fill="#FFF" d="M98.04 719.7c-3.76 0-4.38-34.26-7.03-36.92-2.66-2.66-36.92-3.28-36.92-7.04s34.26-4.38 36.92-7.03c2.65-2.66 3.27-36.92 7.03-36.92s4.38 34.26 7.04 36.92c2.66 2.65 36.92 3.28 36.92 7.03s-34.26 4.38-36.92 7.04c-2.66 2.66-3.28 36.92-7.04 36.92z" color="#000" filter="url(#g)" opacity=".6" transform="matrix(.25751 -.14867 0 .25751 23.6 304.01)"/></g><path fill="url(#a)" fill-rule="evenodd" d="M694.31 576.98l-46.03 26.57v53.16l-30.69-17.72v-53.15l46.03-26.58z" color="#000" transform="translate(-139.15 -104.67)"/><g><path fill="url(#b)" fill-rule="evenodd" d="M-41.43 479.23l-46.03 26.57-46.02-26.57v-53.15l46.02-26.57 46.03 26.57z" color="#000" transform="translate(642.6 72.8)"/><path fill="url(#c)" fill-rule="evenodd" d="M-87.45 505.81v-53.15l46.02-26.57v53.15z" opacity=".4" transform="translate(642.6 72.8)"/><path fill="url(#d)" fill-rule="evenodd" d="M-41.43 426.08l-46.03 26.57-46.02-26.57 46.02-26.57z" opacity=".4" transform="translate(642.6 72.8)"/><path fill="none" stroke="#d7f4e3" stroke-linecap="round" stroke-linejoin="round" stroke-width="2" d="M561.29 521.91l33.75-19.49M515.26 502.43l39.89 23.03v46.06"/><path fill="none" stroke="#d7f4e3" stroke-linecap="round" stroke-width="5.63" d="M601.18 552.03l-46.03 26.57-46.03-26.57v-53.15l46.03-26.57 46.03 26.57z" color="#000"/><path fill="#87ffed" d="M-235.85 539.03a15.9 15.9 0 1 1-31.8 0 15.9 15.9 0 0 1 31.8 0z" color="#000" filter="url(#e)" opacity=".2" transform="translate(806.9 -13.57)"/><path fill="#fff6cc" d="M-235.85 539.03a15.9 15.9 0 1 1-31.8 0 15.9 15.9 0 0 1 31.8 0z" color="#000" filter="url(#f)" opacity=".69" transform="translate(683.23 251.23) scale(.50875)"/><path fill="#FFF" d="M-235.85 539.03a15.9 15.9 0 1 1-31.8 0 15.9 15.9 0 0 1 31.8 0z" color="#000" filter="url(#f)" transform="translate(599.03 431.51) scale(.17428)"/><path fill="#FFF" d="M98.04 719.7c-3.76 0-4.38-34.26-7.03-36.92-2.66-2.66-36.92-3.28-36.92-7.04s34.26-4.38 36.92-7.03c2.65-2.66 3.27-36.92 7.03-36.92s4.38 34.26 7.04 36.92c2.66 2.65 36.92 3.28 36.92 7.03s-34.26 4.38-36.92 7.04c-2.66 2.66-3.28 36.92-7.04 36.92z" color="#000" filter="url(#g)" opacity=".6" transform="matrix(.25751 .14867 0 .25751 529.9 336.87)"/><path fill="#FFF" d="M98.04 719.7c-3.76 0-4.38-34.26-7.03-36.92-2.66-2.66-36.92-3.28-36.92-7.04s34.26-4.38 36.92-7.03c2.65-2.66 3.27-36.92 7.03-36.92s4.38 34.26 7.04 36.92c2.66 2.65 36.92 3.28 36.92 7.03s-34.26 4.38-36.92 7.04c-2.66 2.66-3.28 36.92-7.04 36.92z" color="#000" filter="url(#g)" opacity=".6" transform="matrix(.25751 -.14867 0 .25751 529.9 366.02)"/></g><path fill="url(#a)" fill-rule="evenodd" d="M709.65 692.14l-46.03 26.57v53.15l-92.06-53.15v-53.15L617.6 639z" color="#000" transform="translate(-139.15 -104.67)"/><g><path fill="url(#b)" fill-rule="evenodd" d="M-41.43 479.23l-46.03 26.57-46.02-26.57v-53.15l46.02-26.57 46.03 26.57z" color="#000" transform="translate(657.96 187.96)"/><path fill="url(#c)" fill-rule="evenodd" d="M-87.45 505.81v-53.15l46.02-26.57v53.15z" opacity=".4" transform="translate(657.96 187.96)"/><path fill="url(#d)" fill-rule="evenodd" d="M-41.43 426.08l-46.03 26.57-46.02-26.57 46.02-26.57z" opacity=".4" transform="translate(657.96 187.96)"/><path fill="none" stroke="#d7f4e3" stroke-linecap="round" stroke-linejoin="round" stroke-width="2" d="M576.64 637.07l33.75-19.49M530.6 617.59l39.9 23.03v46.06"/><path fill="none" stroke="#d7f4e3" stroke-linecap="round" stroke-width="5.63" d="M616.53 667.19l-46.03 26.57-46.03-26.57v-53.15l46.03-26.57 46.03 26.57z" color="#000"/><path fill="#87ffed" d="M-235.85 539.03a15.9 15.9 0 1 1-31.8 0 15.9 15.9 0 0 1 31.8 0z" color="#000" filter="url(#e)" opacity=".2" transform="translate(822.26 101.59)"/><path fill="#fff6cc" d="M-235.85 539.03a15.9 15.9 0 1 1-31.8 0 15.9 15.9 0 0 1 31.8 0z" color="#000" filter="url(#f)" opacity=".69" transform="translate(698.58 366.39) scale(.50875)"/><path fill="#FFF" d="M-235.85 539.03a15.9 15.9 0 1 1-31.8 0 15.9 15.9 0 0 1 31.8 0z" color="#000" filter="url(#f)" transform="translate(614.38 546.67) scale(.17428)"/><path fill="#FFF" d="M98.04 719.7c-3.76 0-4.38-34.26-7.03-36.92-2.66-2.66-36.92-3.28-36.92-7.04s34.26-4.38 36.92-7.03c2.65-2.66 3.27-36.92 7.03-36.92s4.38 34.26 7.04 36.92c2.66 2.65 36.92 3.28 36.92 7.03s-34.26 4.38-36.92 7.04c-2.66 2.66-3.28 36.92-7.04 36.92z" color="#000" filter="url(#g)" opacity=".6" transform="matrix(.25751 .14867 0 .25751 545.26 452.03)"/><path fill="#FFF" d="M98.04 719.7c-3.76 0-4.38-34.26-7.03-36.92-2.66-2.66-36.92-3.28-36.92-7.04s34.26-4.38 36.92-7.03c2.65-2.66 3.27-36.92 7.03-36.92s4.38 34.26 7.04 36.92c2.66 2.65 36.92 3.28 36.92 7.03s-34.26 4.38-36.92 7.04c-2.66 2.66-3.28 36.92-7.04 36.92z" color="#000" filter="url(#g)" opacity=".6" transform="matrix(.25751 -.14867 0 .25751 545.26 481.18)"/></g><g><path fill="url(#b)" fill-rule="evenodd" d="M-41.43 479.23l-46.03 26.57-46.02-26.57v-53.15l46.02-26.57 46.03 26.57z" color="#000" transform="translate(811.35 117.09)"/><path fill="url(#c)" fill-rule="evenodd" d="M-87.45 505.81v-53.15l46.02-26.57v53.15z" opacity=".4" transform="translate(811.35 117.09)"/><path fill="url(#d)" fill-rule="evenodd" d="M-41.43 426.08l-46.03 26.57-46.02-26.57 46.02-26.57z" opacity=".4" transform="translate(811.35 117.09)"/><path fill="none" stroke="#d7f4e3" stroke-linecap="round" stroke-linejoin="round" stroke-width="2" d="M730.03 566.2l33.75-19.49M684 546.72l39.89 23.03v46.07"/><path fill="none" stroke="#d7f4e3" stroke-linecap="round" stroke-width="5.63" d="M769.92 596.32l-46.03 26.57-46.03-26.57v-53.15l46.03-26.57 46.03 26.57z" color="#000"/><path fill="#87ffed" d="M-235.85 539.03a15.9 15.9 0 1 1-31.8 0 15.9 15.9 0 0 1 31.8 0z" color="#000" filter="url(#e)" opacity=".2" transform="translate(975.65 30.72)"/><path fill="#fff6cc" d="M-235.85 539.03a15.9 15.9 0 1 1-31.8 0 15.9 15.9 0 0 1 31.8 0z" color="#000" filter="url(#f)" opacity=".69" transform="translate(851.97 295.52) scale(.50875)"/><path fill="#FFF" d="M-235.85 539.03a15.9 15.9 0 1 1-31.8 0 15.9 15.9 0 0 1 31.8 0z" color="#000" filter="url(#f)" transform="translate(767.77 475.8) scale(.17428)"/><path fill="#FFF" d="M98.04 719.7c-3.76 0-4.38-34.26-7.03-36.92-2.66-2.66-36.92-3.28-36.92-7.04s34.26-4.38 36.92-7.03c2.65-2.66 3.27-36.92 7.03-36.92s4.38 34.26 7.04 36.92c2.66 2.65 36.92 3.28 36.92 7.03s-34.26 4.38-36.92 7.04c-2.66 2.66-3.28 36.92-7.04 36.92z" color="#000" filter="url(#g)" opacity=".6" transform="matrix(.25751 .14867 0 .25751 698.65 381.16)"/><path fill="#FFF" d="M98.04 719.7c-3.76 0-4.38-34.26-7.03-36.92-2.66-2.66-36.92-3.28-36.92-7.04s34.26-4.38 36.92-7.03c2.65-2.66 3.27-36.92 7.03-36.92s4.38 34.26 7.04 36.92c2.66 2.65 36.92 3.28 36.92 7.03s-34.26 4.38-36.92 7.04c-2.66 2.66-3.28 36.92-7.04 36.92z" color="#000" filter="url(#g)" opacity=".6" transform="matrix(.25751 -.14867 0 .25751 698.65 410.31)"/></g><path fill="url(#a)" fill-rule="evenodd" d="M525.54 390.96l46.03 26.57 46.03-26.57v35.43l-46.03 26.58-46.03-26.58zM571.57 187.22l-46.03 26.57-46.03-26.57v159.45l46.03 26.57 46.03-26.57z" color="#000" transform="translate(-139.15 -104.67)"/><g><path fill="url(#b)" fill-rule="evenodd" d="M-41.43 479.23l-46.03 26.57-46.02-26.57v-53.15l46.02-26.57 46.03 26.57z" color="#000" transform="translate(473.84 -396.69)"/><path fill="url(#c)" fill-rule="evenodd" d="M-87.45 505.81v-53.15l46.02-26.57v53.15z" opacity=".4" transform="translate(473.84 -396.69)"/><path fill="url(#d)" fill-rule="evenodd" d="M-41.43 426.08l-46.03 26.57-46.02-26.57 46.02-26.57z" opacity=".4" transform="translate(473.84 -396.69)"/><path fill="none" stroke="#d7f4e3" stroke-linecap="round" stroke-linejoin="round" stroke-width="2" d="M392.52 52.42l33.75-19.49M346.49 32.94l39.89 23.03v46.06"/><path fill="none" stroke="#d7f4e3" stroke-linecap="round" stroke-width="5.63" d="M432.41 82.54l-46.03 26.58-46.03-26.58V29.39l46.03-26.57 46.03 26.57z" color="#000"/><path fill="#87ffed" d="M-235.85 539.03a15.9 15.9 0 1 1-31.8 0 15.9 15.9 0 0 1 31.8 0z" color="#000" filter="url(#e)" opacity=".2" transform="translate(638.14 -483.06)"/><path fill="#fff6cc" d="M-235.85 539.03a15.9 15.9 0 1 1-31.8 0 15.9 15.9 0 0 1 31.8 0z" color="#000" filter="url(#f)" opacity=".69" transform="translate(514.46 -218.26) scale(.50875)"/><path fill="#FFF" d="M-235.85 539.03a15.9 15.9 0 1 1-31.8 0 15.9 15.9 0 0 1 31.8 0z" color="#000" filter="url(#f)" transform="translate(430.26 -37.98) scale(.17428)"/><path fill="#FFF" d="M98.04 719.7c-3.76 0-4.38-34.26-7.03-36.92-2.66-2.66-36.92-3.28-36.92-7.04s34.26-4.38 36.92-7.03c2.65-2.66 3.27-36.92 7.03-36.92s4.38 34.26 7.04 36.92c2.66 2.65 36.92 3.28 36.92 7.03s-34.26 4.38-36.92 7.04c-2.66 2.66-3.28 36.92-7.04 36.92z" color="#000" filter="url(#g)" opacity=".6" transform="matrix(.25751 .14867 0 .25751 361.14 -132.62)"/><path fill="#FFF" d="M98.04 719.7c-3.76 0-4.38-34.26-7.03-36.92-2.66-2.66-36.92-3.28-36.92-7.04s34.26-4.38 36.92-7.03c2.65-2.66 3.27-36.92 7.03-36.92s4.38 34.26 7.04 36.92c2.66 2.65 36.92 3.28 36.92 7.03s-34.26 4.38-36.92 7.04c-2.66 2.66-3.28 36.92-7.04 36.92z" color="#000" filter="url(#g)" opacity=".6" transform="matrix(.25751 -.14867 0 .25751 361.14 -103.47)"/></g><g><path fill="url(#b)" fill-rule="evenodd" d="M-41.43 479.23l-46.03 26.57-46.02-26.57v-53.15l46.02-26.57 46.03 26.57z" color="#000" transform="translate(519.87 -192.95)"/><path fill="url(#c)" fill-rule="evenodd" d="M-87.45 505.81v-53.15l46.02-26.57v53.15z" opacity=".4" transform="translate(519.87 -192.95)"/><path fill="url(#d)" fill-rule="evenodd" d="M-41.43 426.08l-46.03 26.57-46.02-26.57 46.02-26.57z" opacity=".4" transform="translate(519.87 -192.95)"/><path fill="none" stroke="#d7f4e3" stroke-linecap="round" stroke-linejoin="round" stroke-width="2" d="M438.55 256.16l33.75-19.49M392.52 236.68l39.89 23.03v46.07"/><path fill="none" stroke="#d7f4e3" stroke-linecap="round" stroke-width="5.63" d="M478.44 286.28l-46.03 26.58-46.03-26.58v-53.15l46.03-26.57 46.03 26.57z" color="#000"/><path fill="#87ffed" d="M-235.85 539.03a15.9 15.9 0 1 1-31.8 0 15.9 15.9 0 0 1 31.8 0z" color="#000" filter="url(#e)" opacity=".2" transform="translate(684.17 -279.32)"/><path fill="#fff6cc" d="M-235.85 539.03a15.9 15.9 0 1 1-31.8 0 15.9 15.9 0 0 1 31.8 0z" color="#000" filter="url(#f)" opacity=".69" transform="translate(560.5 -14.52) scale(.50875)"/><path fill="#FFF" d="M-235.85 539.03a15.9 15.9 0 1 1-31.8 0 15.9 15.9 0 0 1 31.8 0z" color="#000" filter="url(#f)" transform="translate(476.29 165.76) scale(.17428)"/><path fill="#FFF" d="M98.04 719.7c-3.76 0-4.38-34.26-7.03-36.92-2.66-2.66-36.92-3.28-36.92-7.04s34.26-4.38 36.92-7.03c2.65-2.66 3.27-36.92 7.03-36.92s4.38 34.26 7.04 36.92c2.66 2.65 36.92 3.28 36.92 7.03s-34.26 4.38-36.92 7.04c-2.66 2.66-3.28 36.92-7.04 36.92z" color="#000" filter="url(#g)" opacity=".6" transform="matrix(.25751 .14867 0 .25751 407.17 71.12)"/><path fill="#FFF" d="M98.04 719.7c-3.76 0-4.38-34.26-7.03-36.92-2.66-2.66-36.92-3.28-36.92-7.04s34.26-4.38 36.92-7.03c2.65-2.66 3.27-36.92 7.03-36.92s4.38 34.26 7.04 36.92c2.66 2.65 36.92 3.28 36.92 7.03s-34.26 4.38-36.92 7.04c-2.66 2.66-3.28 36.92-7.04 36.92z" color="#000" filter="url(#g)" opacity=".6" transform="matrix(.25751 -.14867 0 .25751 407.17 100.27)"/></g><path fill="url(#a)" fill-rule="evenodd" d="M525.54 284.66l-46.03 26.57-46.03-26.57v141.73l46.03 26.57 46.03-26.57z" color="#000" transform="translate(-139.15 -104.67)"/><g><path fill="url(#b)" fill-rule="evenodd" d="M-41.43 479.23l-46.03 26.57-46.02-26.57v-53.15l46.02-26.57 46.03 26.57z" color="#000" transform="translate(427.8 -299.25)"/><path fill="url(#c)" fill-rule="evenodd" d="M-87.45 505.81v-53.15l46.02-26.57v53.15z" opacity=".4" transform="translate(427.8 -299.25)"/><path fill="url(#d)" fill-rule="evenodd" d="M-41.43 426.08l-46.03 26.57-46.02-26.57 46.02-26.57z" opacity=".4" transform="translate(427.8 -299.25)"/><path fill="none" stroke="#d7f4e3" stroke-linecap="round" stroke-linejoin="round" stroke-width="2" d="M346.49 149.86l33.75-19.49M300.46 130.38l39.89 23.03v46.07"/><path fill="none" stroke="#d7f4e3" stroke-linecap="round" stroke-width="5.63" d="M386.38 179.98l-46.03 26.58-46.03-26.58v-53.15l46.03-26.57 46.03 26.57z" color="#000"/><path fill="#87ffed" d="M-235.85 539.03a15.9 15.9 0 1 1-31.8 0 15.9 15.9 0 0 1 31.8 0z" color="#000" filter="url(#e)" opacity=".2" transform="translate(592.1 -385.62)"/><path fill="#fff6cc" d="M-235.85 539.03a15.9 15.9 0 1 1-31.8 0 15.9 15.9 0 0 1 31.8 0z" color="#000" filter="url(#f)" opacity=".69" transform="translate(468.43 -120.82) scale(.50875)"/><path fill="#FFF" d="M-235.85 539.03a15.9 15.9 0 1 1-31.8 0 15.9 15.9 0 0 1 31.8 0z" color="#000" filter="url(#f)" transform="translate(384.23 59.46) scale(.17428)"/><path fill="#FFF" d="M98.04 719.7c-3.76 0-4.38-34.26-7.03-36.92-2.66-2.66-36.92-3.28-36.92-7.04s34.26-4.38 36.92-7.03c2.65-2.66 3.27-36.92 7.03-36.92s4.38 34.26 7.04 36.92c2.66 2.65 36.92 3.28 36.92 7.03s-34.26 4.38-36.92 7.04c-2.66 2.66-3.28 36.92-7.04 36.92z" color="#000" filter="url(#g)" opacity=".6" transform="matrix(.25751 .14867 0 .25751 315.1 -35.18)"/><path fill="#FFF" d="M98.04 719.7c-3.76 0-4.38-34.26-7.03-36.92-2.66-2.66-36.92-3.28-36.92-7.04s34.26-4.38 36.92-7.03c2.65-2.66 3.27-36.92 7.03-36.92s4.38 34.26 7.04 36.92c2.66 2.65 36.92 3.28 36.92 7.03s-34.26 4.38-36.92 7.04c-2.66 2.66-3.28 36.92-7.04 36.92z" color="#000" filter="url(#g)" opacity=".6" transform="matrix(.25751 -.14867 0 .25751 315.1 -6.03)"/></g><path fill="url(#a)" fill-rule="evenodd" d="M280.05 674.42l46.03 26.57v53.15l107.4-62v-53.15l-46.03-26.58z" color="#000" transform="translate(-139.15 -104.67)"/><path fill="url(#a)" fill-rule="evenodd" d="M372.11 568.12l46.03 26.57v53.15l61.37-35.43v-53.15l-46.03-26.57z" color="#000" transform="translate(-139.15 -104.67)"/><g><path fill="url(#b)" fill-rule="evenodd" d="M-41.43 479.23l-46.03 26.57-46.02-26.57v-53.15l46.02-26.57 46.03 26.57z" color="#000" transform="translate(320.4 63.95)"/><path fill="url(#c)" fill-rule="evenodd" d="M-87.45 505.81v-53.15l46.02-26.57v53.15z" opacity=".4" transform="translate(320.4 63.95)"/><path fill="url(#d)" fill-rule="evenodd" d="M-41.43 426.08l-46.03 26.57-46.02-26.57 46.02-26.57z" opacity=".4" transform="translate(320.4 63.95)"/><path fill="none" stroke="#d7f4e3" stroke-linecap="round" stroke-linejoin="round" stroke-width="2" d="M239.09 513.06l33.75-19.49M193.06 493.58l39.89 23.03v46.06"/><path fill="none" stroke="#d7f4e3" stroke-linecap="round" stroke-width="5.63" d="M278.98 543.18l-46.03 26.58-46.03-26.58v-53.15l46.03-26.57 46.03 26.57z" color="#000"/><path fill="#87ffed" d="M-235.85 539.03a15.9 15.9 0 1 1-31.8 0 15.9 15.9 0 0 1 31.8 0z" color="#000" filter="url(#e)" opacity=".2" transform="translate(484.7 -22.42)"/><path fill="#fff6cc" d="M-235.85 539.03a15.9 15.9 0 1 1-31.8 0 15.9 15.9 0 0 1 31.8 0z" color="#000" filter="url(#f)" opacity=".69" transform="translate(361.03 242.38) scale(.50875)"/><path fill="#FFF" d="M-235.85 539.03a15.9 15.9 0 1 1-31.8 0 15.9 15.9 0 0 1 31.8 0z" color="#000" filter="url(#f)" transform="translate(276.83 422.66) scale(.17428)"/><path fill="#FFF" d="M98.04 719.7c-3.76 0-4.38-34.26-7.03-36.92-2.66-2.66-36.92-3.28-36.92-7.04s34.26-4.38 36.92-7.03c2.65-2.66 3.27-36.92 7.03-36.92s4.38 34.26 7.04 36.92c2.66 2.65 36.92 3.28 36.92 7.03s-34.26 4.38-36.92 7.04c-2.66 2.66-3.28 36.92-7.04 36.92z" color="#000" filter="url(#g)" opacity=".6" transform="matrix(.25751 .14867 0 .25751 207.7 328.02)"/><path fill="#FFF" d="M98.04 719.7c-3.76 0-4.38-34.26-7.03-36.92-2.66-2.66-36.92-3.28-36.92-7.04s34.26-4.38 36.92-7.03c2.65-2.66 3.27-36.92 7.03-36.92s4.38 34.26 7.04 36.92c2.66 2.65 36.92 3.28 36.92 7.03s-34.26 4.38-36.92 7.04c-2.66 2.66-3.28 36.92-7.04 36.92z" color="#000" filter="url(#g)" opacity=".6" transform="matrix(.25751 -.14867 0 .25751 207.7 357.17)"/></g><g><path fill="url(#b)" fill-rule="evenodd" d="M-41.43 479.23l-46.03 26.57-46.02-26.57v-53.15l46.02-26.57 46.03 26.57z" color="#000" transform="translate(228.35 170.24)"/><path fill="url(#c)" fill-rule="evenodd" d="M-87.45 505.81v-53.15l46.02-26.57v53.15z" opacity=".4" transform="translate(228.35 170.24)"/><path fill="url(#d)" fill-rule="evenodd" d="M-41.43 426.08l-46.03 26.57-46.02-26.57 46.02-26.57z" opacity=".4" transform="translate(228.35 170.24)"/><path fill="none" stroke="#d7f4e3" stroke-linecap="round" stroke-linejoin="round" stroke-width="2" d="M147.03 619.35l33.75-19.49M101 599.87l39.89 23.03v46.07"/><path fill="none" stroke="#d7f4e3" stroke-linecap="round" stroke-width="5.63" d="M186.92 649.47l-46.03 26.57-46.03-26.57v-53.15l46.03-26.57 46.03 26.57z" color="#000"/><path fill="#87ffed" d="M-235.85 539.03a15.9 15.9 0 1 1-31.8 0 15.9 15.9 0 0 1 31.8 0z" color="#000" filter="url(#e)" opacity=".2" transform="translate(392.65 83.87)"/><path fill="#fff6cc" d="M-235.85 539.03a15.9 15.9 0 1 1-31.8 0 15.9 15.9 0 0 1 31.8 0z" color="#000" filter="url(#f)" opacity=".69" transform="translate(268.97 348.67) scale(.50875)"/><path fill="#FFF" d="M-235.85 539.03a15.9 15.9 0 1 1-31.8 0 15.9 15.9 0 0 1 31.8 0z" color="#000" filter="url(#f)" transform="translate(184.77 528.95) scale(.17428)"/><path fill="#FFF" d="M98.04 719.7c-3.76 0-4.38-34.26-7.03-36.92-2.66-2.66-36.92-3.28-36.92-7.04s34.26-4.38 36.92-7.03c2.65-2.66 3.27-36.92 7.03-36.92s4.38 34.26 7.04 36.92c2.66 2.65 36.92 3.28 36.92 7.03s-34.26 4.38-36.92 7.04c-2.66 2.66-3.28 36.92-7.04 36.92z" color="#000" filter="url(#g)" opacity=".6" transform="matrix(.25751 .14867 0 .25751 115.65 434.31)"/><path fill="#FFF" d="M98.04 719.7c-3.76 0-4.38-34.26-7.03-36.92-2.66-2.66-36.92-3.28-36.92-7.04s34.26-4.38 36.92-7.03c2.65-2.66 3.27-36.92 7.03-36.92s4.38 34.26 7.04 36.92c2.66 2.65 36.92 3.28 36.92 7.03s-34.26 4.38-36.92 7.04c-2.66 2.66-3.28 36.92-7.04 36.92z" color="#000" filter="url(#g)" opacity=".6" transform="matrix(.25751 -.14867 0 .25751 115.65 463.46)"/></g><path fill="url(#a)" fill-rule="evenodd" d="M786.37 328.95l-122.74 70.87 46.03 26.57v53.15l122.74-70.87-46.03-26.57z" color="#000" transform="translate(-139.15 -104.67)"/><g><path fill="url(#b)" fill-rule="evenodd" d="M-41.43 479.23l-46.03 26.57-46.02-26.57v-53.15l46.02-26.57 46.03 26.57z" color="#000" transform="translate(780.65 -201.8)"/><path fill="url(#c)" fill-rule="evenodd" d="M-87.45 505.81v-53.15l46.02-26.57v53.15z" opacity=".4" transform="translate(780.65 -201.8)"/><path fill="url(#d)" fill-rule="evenodd" d="M-41.43 426.08l-46.03 26.57-46.02-26.57 46.02-26.57z" opacity=".4" transform="translate(780.65 -201.8)"/><path fill="none" stroke="#d7f4e3" stroke-linecap="round" stroke-linejoin="round" stroke-width="2" d="M699.33 247.31l33.75-19.49M653.3 227.83l39.89 23.03v46.07"/><path fill="none" stroke="#d7f4e3" stroke-linecap="round" stroke-width="5.63" d="M739.22 277.43l-46.03 26.58-46.03-26.58v-53.15l46.03-26.57 46.03 26.57z" color="#000"/><path fill="#87ffed" d="M-235.85 539.03a15.9 15.9 0 1 1-31.8 0 15.9 15.9 0 0 1 31.8 0z" color="#000" filter="url(#e)" opacity=".2" transform="translate(944.95 -288.17)"/><path fill="#fff6cc" d="M-235.85 539.03a15.9 15.9 0 1 1-31.8 0 15.9 15.9 0 0 1 31.8 0z" color="#000" filter="url(#f)" opacity=".69" transform="translate(821.27 -23.37) scale(.50875)"/><path fill="#FFF" d="M-235.85 539.03a15.9 15.9 0 1 1-31.8 0 15.9 15.9 0 0 1 31.8 0z" color="#000" filter="url(#f)" transform="translate(737.07 156.91) scale(.17428)"/><path fill="#FFF" d="M98.04 719.7c-3.76 0-4.38-34.26-7.03-36.92-2.66-2.66-36.92-3.28-36.92-7.04s34.26-4.38 36.92-7.03c2.65-2.66 3.27-36.92 7.03-36.92s4.38 34.26 7.04 36.92c2.66 2.65 36.92 3.28 36.92 7.03s-34.26 4.38-36.92 7.04c-2.66 2.66-3.28 36.92-7.04 36.92z" color="#000" filter="url(#g)" opacity=".6" transform="matrix(.25751 .14867 0 .25751 667.95 62.27)"/><path fill="#FFF" d="M98.04 719.7c-3.76 0-4.38-34.26-7.03-36.92-2.66-2.66-36.92-3.28-36.92-7.04s34.26-4.38 36.92-7.03c2.65-2.66 3.27-36.92 7.03-36.92s4.38 34.26 7.04 36.92c2.66 2.65 36.92 3.28 36.92 7.03s-34.26 4.38-36.92 7.04c-2.66 2.66-3.28 36.92-7.04 36.92z" color="#000" filter="url(#g)" opacity=".6" transform="matrix(.25751 -.14867 0 .25751 667.95 91.42)"/></g><g color="#000"><path fill="#87ffed" d="M-235.85 539.03a15.9 15.9 0 1 1-31.8 0 15.9 15.9 0 0 1 31.8 0z" filter="url(#k)" opacity=".2" transform="translate(2911.01 -4977.37) scale(10.028)"/><path fill="#fff6cc" d="M-235.85 539.03a15.9 15.9 0 1 1-31.8 0 15.9 15.9 0 0 1 31.8 0z" filter="url(#l)" opacity=".69" transform="matrix(5.10175 0 0 5.10175 1670.75 -2321.95)"/><path fill="#FFF" d="M-235.85 539.03a15.9 15.9 0 1 1-31.8 0 15.9 15.9 0 0 1 31.8 0z" filter="url(#l)" transform="matrix(1.74768 0 0 1.74768 826.39 -514.1)"/><path fill="#FFF" d="M98.04 719.7c-3.76 0-4.38-34.26-7.03-36.92-2.66-2.66-36.92-3.28-36.92-7.04s34.26-4.38 36.92-7.03c2.65-2.66 3.27-36.92 7.03-36.92s4.38 34.26 7.04 36.92c2.66 2.65 36.92 3.28 36.92 7.03s-34.26 4.38-36.92 7.04c-2.66 2.66-3.28 36.92-7.04 36.92z" filter="url(#m)" opacity=".6" transform="matrix(2.58231 1.49086 0 2.58231 133.25 -1463.15)"/><path fill="#FFF" d="M98.04 719.7c-3.76 0-4.38-34.26-7.03-36.92-2.66-2.66-36.92-3.28-36.92-7.04s34.26-4.38 36.92-7.03c2.65-2.66 3.27-36.92 7.03-36.92s4.38 34.26 7.04 36.92c2.66 2.65 36.92 3.28 36.92 7.03s-34.26 4.38-36.92 7.04c-2.66 2.66-3.28 36.92-7.04 36.92z" filter="url(#m)" opacity=".6" transform="matrix(2.58231 -1.49086 0 2.58231 133.25 -1170.73)"/></g></svg>