<svg viewBox="0 0 536.62 512.41" xmlns="http://www.w3.org/2000/svg"><g fill-rule="evenodd"><path d="M263.63 247.61l-12.4-19.94-2.15-14.55L262 202.88c29.39-5.59 52.17-24.98 65.76-63.6L470.05 4c37.97-16.82 71.36 33.37 65.2 59.29L394.6 200.16c-46.23 16.54-66.37 39.17-69.53 65.76l-12.4 11.31-15.62-.53-19.4-13.48-14.02-15.63z" stroke="#000" stroke-linecap="round" stroke-linejoin="round" stroke-width="1.25"/><path d="M485.71.62c-5.06-.03-10.32 1-15.66 3.38L327.77 139.28c-13.58 38.62-36.36 58-65.75 63.59l-12.93 10.25 2.15 14.56 12.4 19.94 8.04 8.97 22.67-36.53c30.32-12.62 47.6-36.1 68.41-60.42l155.9-142.62C509.85 7.5 498.37.7 485.7.62z" fill="#333" stroke="#000" stroke-linecap="round" stroke-linejoin="round" stroke-width="1.25"/><path d="M497.99 6.71c-2.18-.06-4.35.27-6.37 1.06L346.65 145.74c-10.56 12-14.33 21.48-13.57 27.56 1.42 11.33 18.46 10.9 36.25-6.96L515.86 27.18c4.02-7.81-2.76-16.13-11.4-19.22a20.97 20.97 0 0 0-6.47-1.25zM297.18 205.3c-4.01-.01-8.96.54-14.69 1.34l-14.9 12.84c1.63 7.34 11.87 21.96 21.93 21.94l15.07-13.21c8.34-17.86 4.63-22.88-7.41-22.91z" fill="#fc0"/><path d="M528.8 36.88l-168.91 161.9 3.77 8.4 168.48-161.3-3.35-9z" fill="#333" stroke="#000" stroke-linecap="round" stroke-linejoin="round" stroke-width="1.25"/><path d="M532.03 45.5l.54 17.25-139.6 133.12c-9.04 1.45-19.1 5.44-29.58 11.2L532.02 45.5z" fill="#4d4d4d" stroke="#000" stroke-linecap="round" stroke-linejoin="round" stroke-width="1.25"/><path d="M297.59 258.39l28.03-26.95 3.23 7.55-26.95 25.87-4.31-6.47z" fill="#333" stroke="#000" stroke-linecap="round" stroke-linejoin="round" stroke-width="1.25"/><path d="M328.73 239.64l-7.67 22.65-7.62 7.08-11.54-4.82 26.83-24.9z" fill="#4d4d4d" stroke="#000" stroke-linecap="round" stroke-linejoin="round" stroke-width="1.25"/><path d="M359.57 198.93l21.02-25.16L523.4 38.5l5.93-2.15-169.77 162.59zm-48.52 41.67l-6.79 6.79-6.88 10.45 27.7-25.86-14.03 8.62z" fill="#1a1a1a" stroke="#000" stroke-linecap="round" stroke-linejoin="round" stroke-width="1.25"/><path d="M257.71 214.73l15.1-12.3-9.71 3.14-10.78 9.7 4.85 6.47.54-7.01zm66.02-54.84l15.9-19.53L482.99 2.93l-11.32 2.15-141.74 134.74-6.2 20.07z" fill="gray" stroke="#000" stroke-linecap="round" stroke-linejoin="round" stroke-width="1.25"/><path d="M253.24 227.49c7.03-13.79 53.69 42.3 49.36 47.52-9.2 7.59-52.28-40.55-49.36-47.52z" fill="#1a1a1a"/><path d="M264.67 237.13c3.6-6.97 27.56 21.39 25.34 24.02-4.72 3.84-26.84-20.5-25.34-24.02z" stroke="#000" stroke-linecap="round" stroke-linejoin="round" stroke-width="1.4"/><path d="M270.38 240.73l-260.24 245-9.52 19.04 3.03 5.19 4.12 1.81 20.78-8.9L286.2 257.5c1.32-2.1-13.16-19.91-15.84-16.78z" fill="#f9f9f9" stroke="#000" stroke-linecap="round" stroke-linejoin="round" stroke-width="1.25"/><path d="M278.53 246.84L18.39 493.99l-14.6 15.87L8 511.4l20.63-9.23L285.3 257.43c-.2-3.96-3.87-7.68-6.78-10.6z" fill="#999"/><path d="M284.55 254.79L26.24 499.65l1.56-5.2-13.11-2.35-4.2-6L1 504.78l2.99 4.95 3.88 1.14L28 502.53l257.67-245.4c-.24-.85-.44-1.72-1.12-2.35z" fill="gray"/><path d="M38.1 483.52l-5.79 2.3L20 498.16 8.42 508l1.13 1.26 16.36-8.16 12.56-11.33-5.42.74 5.05-6.99z" fill="#b3b3b3" stroke="#000" stroke-linecap="round" stroke-linejoin="round" stroke-width="1.25"/><path d="M32.67 490.6l-5.03.4 4.92-4.93 5.6-2.24-5.49 6.77z" fill="#ececec" stroke="#000" stroke-linecap="round" stroke-linejoin="round" stroke-width="1.25"/><path d="M14.66 492.47L276.67 244.9c1.35 1.33 2.48 3.39 3.87 4.86L19.95 497.05l-1.66-3.22-3.63-1.36z" fill="#ccc"/><path d="M266.16 244.12c7.16 5.9 12.02 18.04-1.04 34.87l20.3-21.86c-2.45-7.94-8.76-12.99-14.06-17.17l-5.2 4.16z" fill="#999" opacity=".41"/><path d="M30.19 475.2l-3.05 5.7-13.05 11.57-9.37 12.32-2.21-.74 8.87-17.49 14.53-13.55-2.46 6.16 6.74-3.97z" fill="#ccc" stroke="#000" stroke-linecap="round" stroke-linejoin="round" stroke-width="1.25"/><path d="M23.2 479.42l.5 4.43 3.93-3.2 2.19-5.32-6.62 4.09z" fill="gray" stroke="#000" stroke-linecap="round" stroke-linejoin="round" stroke-width="1.25"/><path d="M513.05 13.46L336.18 179.02c5.92 4.55 19.3 1.23 33.16-12.69L515.87 27.17c2.48-4.83.84-9.86-2.82-13.72zM306.11 207.18l-29.34 27.47c3.77 3.86 8.26 6.79 12.75 6.78l15.06-13.22c5.65-12.08 5.77-18.27 1.53-21.03z" fill="#ffd42a"/><path d="M497.99 6.71c-2.18-.06-4.35.27-6.37 1.06L346.65 145.74c-6.86 7.8-10.82 14.51-12.57 19.94L502.11 7.28A20.27 20.27 0 0 0 498 6.7zM291.74 205.59c-2.8.23-5.88.59-9.25 1.06l-14.9 12.85a25.3 25.3 0 0 0 2.62 6.37l21.53-20.28z" fill="#d4aa00"/></g></svg>